<svg xmlns="http://www.w3.org/2000/svg" width="84.14" height="135.995" viewBox="0 0 84.14 135.995">
  <g id="Group_566" data-name="Group 566" transform="translate(-1205.766 0.565)">
    <path id="Path_776" data-name="Path 776" d="M84.14,13V145a4,4,0,0,1-4,4H4a4,4,0,0,1-4-4V13Z" transform="translate(1205.766 -13.565)" fill="#ff4848"/>
    <path id="Path_784" data-name="Path 784" d="M13.7,0,12.353-4.418H5.586L4.24,0H0L6.551-18.637h4.812L17.938,0ZM11.413-7.719q-1.866-6-2.1-6.792t-.336-1.244q-.419,1.625-2.4,8.036ZM34.894-9.458q0,4.583-2.609,7.021T24.75,0H19.494V-18.561h5.827a9.813,9.813,0,0,1,7.059,2.4A8.826,8.826,0,0,1,34.894-9.458Zm-4.088.1q0-5.979-5.281-5.979H23.43V-3.25h1.688Q30.806-3.25,30.806-9.356ZM45.819,0,41.35-14.562h-.114q.241,4.443.241,5.929V0H37.961V-18.561h5.357L47.711-4.367h.076l4.659-14.193H57.8V0H54.134V-8.785q0-.622.019-1.435t.171-4.316h-.114L49.424,0ZM61.7,0V-18.561h3.936V0ZM85.988,0h-5L72.912-14.041H72.8q.241,3.72.241,5.307V0H69.523V-18.561h4.964l8.062,13.9h.089q-.19-3.618-.19-5.116v-8.785h3.542Z" transform="translate(1258 116) rotate(-90)" fill="#0d2134" opacity="0.494"/>
  </g>
</svg>
