<svg xmlns="http://www.w3.org/2000/svg" width="93.28" height="64.098" viewBox="0 0 93.28 64.098">
  <g id="Group_567" data-name="Group 567" transform="translate(-54.566 -304.681)">
    <path id="Path_110" data-name="Path 110" d="M25.112,30.907l4.636-4.25a1.419,1.419,0,0,1,1.159-.386l.773.386L42.5,31.679c.773.386.773.773.773,1.545-.386,3.091-1.159,5.409-3.091,6.954a11.067,11.067,0,0,1-8.113,3.091,23.54,23.54,0,0,1-10.817-2.7c-3.863-1.932-4.6-2.235-10.118-7.231-3.434-4.04-4.949-5.9-6.495-8.995s-3.091-5.8-3.863-8.5A23.774,23.774,0,0,1,0,8.5,10.152,10.152,0,0,1,2.7,2.7C4.25,1.159,6.568.386,10.045,0A2.007,2.007,0,0,1,11.59.773l5.8,10.817a1.349,1.349,0,0,0,.386.773,1.419,1.419,0,0,1-.386,1.159l-5.022,4.636a1.724,1.724,0,0,0,0,1.932c1.159,2.318,3.091,4.25,4.636,6.181a39.008,39.008,0,0,0,6.181,5.022C23.953,31.679,24.725,31.679,25.112,30.907Z" transform="matrix(0.799, 0.602, -0.602, 0.799, 82.356, 306.432)" fill="none" stroke="#fff" stroke-width="2.5"/>
    <g id="credit-card" transform="translate(95.217 329.092) rotate(-25)">
      <path id="Path_784" data-name="Path 784" d="M38.955,8H2.945A2.746,2.746,0,0,0,0,10.481V31.408a2.746,2.746,0,0,0,2.945,2.481h36.01A2.746,2.746,0,0,0,41.9,31.408V10.481A2.746,2.746,0,0,0,38.955,8ZM40.5,31.408a1.444,1.444,0,0,1-1.548,1.3H2.945a1.444,1.444,0,0,1-1.548-1.3V10.481a1.444,1.444,0,0,1,1.548-1.3h36.01a1.444,1.444,0,0,1,1.548,1.3Z" transform="translate(0)" fill="#fff" stroke="#fff" stroke-width="0.5"/>
      <path id="Path_785" data-name="Path 785" d="M11.884,37h-5.3a.588.588,0,0,0,0,1.177h5.3a.588.588,0,0,0,0-1.177Z" transform="translate(-2.47 -11.937)" fill="#fff"/>
      <path id="Path_786" data-name="Path 786" d="M24.884,37h-5.3a.588.588,0,1,0,0,1.177h5.3a.588.588,0,0,0,0-1.177Z" transform="translate(-5.263 -11.937)" fill="#fff"/>
      <path id="Path_787" data-name="Path 787" d="M7.177,42H6.588a.588.588,0,1,0,0,1.177h.588a.588.588,0,1,0,0-1.177Z" transform="translate(-2.47 -13.995)" fill="#fff"/>
      <path id="Path_788" data-name="Path 788" d="M12.765,42H11.588a.588.588,0,1,0,0,1.177h1.177a.588.588,0,1,0,0-1.177Z" transform="translate(-3.232 -13.995)" fill="#fff"/>
      <path id="Path_789" data-name="Path 789" d="M18.177,42h-.588a.588.588,0,1,0,0,1.177h.588a.588.588,0,1,0,0-1.177Z" transform="translate(-5.03 -13.995)" fill="#fff"/>
      <path id="Path_790" data-name="Path 790" d="M23.765,42H22.588a.588.588,0,1,0,0,1.177h1.177a.588.588,0,0,0,0-1.177Z" transform="translate(-6.464 -13.995)" fill="#fff"/>
      <path id="Path_791" data-name="Path 791" d="M28.171,42.176a.588.588,0,1,0,.836,0A.616.616,0,0,0,28.171,42.176Z" transform="translate(-8.341 -14)" fill="#fff"/>
      <path id="Path_792" data-name="Path 792" d="M40.129,33a3.044,3.044,0,0,0-1.532.415,3.065,3.065,0,1,0,0,5.3A3.063,3.063,0,1,0,40.129,33Zm-.876,3.065a2.181,2.181,0,0,1-.657,1.559,2.18,2.18,0,0,1,0-3.119A2.181,2.181,0,0,1,39.254,36.065Zm-4.378,0a2.191,2.191,0,0,1,2.189-2.189,2.165,2.165,0,0,1,.782.151,3.046,3.046,0,0,0,0,4.076,2.165,2.165,0,0,1-.782.151A2.192,2.192,0,0,1,34.876,36.065Zm5.254,2.189a2.165,2.165,0,0,1-.782-.151,3.046,3.046,0,0,0,0-4.076,2.165,2.165,0,0,1,.782-.151,2.189,2.189,0,1,1,0,4.378Z" transform="translate(-4.236 -8.182)" fill="#fff"/>
      <path id="Path_793" data-name="Path 793" d="M7.027,22.377h6.145A1.029,1.029,0,0,0,14.2,21.35V17.027A1.029,1.029,0,0,0,13.172,16H7.027A1.029,1.029,0,0,0,6,17.027V21.35A1.029,1.029,0,0,0,7.027,22.377Zm1.706-2.733H6.911v-.911H8.733ZM6.911,21.35v-.795H8.733v.795a.983.983,0,0,0,.012.116H7.027A.116.116,0,0,1,6.911,21.35Zm6.377-1.706H11.466v-.795a.116.116,0,0,1,.116-.116h1.59a.984.984,0,0,0,.116-.012Zm-.116,1.822H11.454a.984.984,0,0,0,.012-.116v-.795h1.822v.795A.116.116,0,0,1,13.172,21.466Zm0-4.555a.116.116,0,0,1,.116.116v.679a.116.116,0,0,1-.116.116h-1.59a1.029,1.029,0,0,0-1.027,1.027v2.5a.116.116,0,0,1-.116.116H9.76a.116.116,0,0,1-.116-.116V17.027a.116.116,0,0,1,.116-.116Zm-6.145,0H8.745a.984.984,0,0,0-.012.116v.795H6.911v-.795A.116.116,0,0,1,7.027,16.911Z" transform="translate(-2.47 -3.293)" fill="#fff"/>
    </g>
  </g>
</svg>
