<svg id="bell" xmlns="http://www.w3.org/2000/svg" width="17.417" height="19" viewBox="0 0 17.417 19">
  <path id="Path_790" data-name="Path 790" d="M136.3,419.562a2.972,2.972,0,0,1-2.969-2.969.594.594,0,1,1,1.188,0,1.781,1.781,0,1,0,3.562,0,.594.594,0,1,1,1.188,0A2.972,2.972,0,0,1,136.3,419.562Zm0,0" transform="translate(-128.384 -400.563)" fill="#fff"/>
  <path id="Path_791" data-name="Path 791" d="M14.448,78.25H1.385a1.386,1.386,0,0,1-.9-2.438.546.546,0,0,1,.063-.048A5.321,5.321,0,0,0,2.375,71.75V69.542A5.548,5.548,0,0,1,7.917,64a2.384,2.384,0,0,1,.39.024.593.593,0,1,1-.195,1.171,1.245,1.245,0,0,0-.2-.007,4.359,4.359,0,0,0-4.354,4.354V71.75a6.511,6.511,0,0,1-2.3,4.965c-.012.01-.022.018-.035.027a.2.2,0,0,0-.042.123.2.2,0,0,0,.2.2H14.448a.2.2,0,0,0,.2-.2.189.189,0,0,0-.043-.123l-.034-.027a6.51,6.51,0,0,1-2.3-4.965v-.863a.594.594,0,1,1,1.187,0v.863a5.322,5.322,0,0,0,1.83,4.016.577.577,0,0,1,.061.046,1.385,1.385,0,0,1-.9,2.437Zm0,0" transform="translate(0 -61.625)" fill="#fff"/>
  <path id="Path_792" data-name="Path 792" d="M259.958,7.917a3.958,3.958,0,1,1,3.958-3.958A3.963,3.963,0,0,1,259.958,7.917Zm0-6.729a2.771,2.771,0,1,0,2.771,2.771A2.774,2.774,0,0,0,259.958,1.187Zm0,0" transform="translate(-246.5 0)" fill="#fff"/>
</svg>
