<svg xmlns="http://www.w3.org/2000/svg" width="56" height="75.423" viewBox="0 0 56 75.423">
  <g id="Group_568" data-name="Group 568" transform="translate(1705 824)">
    <g id="Group_567" data-name="Group 567" transform="translate(-3000.566 -1326.788)">
      <rect id="Rectangle_1803" data-name="Rectangle 1803" width="56" height="75.423" rx="4" transform="translate(1295.566 502.788)" fill="#0d2134"/>
      <path id="Path_786" data-name="Path 786" d="M-7.3-3.4h.448a1.493,1.493,0,0,0,.94-.248A.869.869,0,0,0-5.6-4.373a.891.891,0,0,0-.261-.708,1.225,1.225,0,0,0-.82-.229H-7.3Zm3.076-1.02a1.964,1.964,0,0,1-.648,1.586,2.772,2.772,0,0,1-1.844.549H-7.3V0H-8.66V-6.425h2.052a2.73,2.73,0,0,1,1.778.5A1.835,1.835,0,0,1-4.221-4.421Zm6.774,1.2A3.486,3.486,0,0,1,1.762-.769,2.932,2.932,0,0,1-.505.088,2.932,2.932,0,0,1-2.773-.769,3.5,3.5,0,0,1-3.564-3.23a3.452,3.452,0,0,1,.793-2.45A2.966,2.966,0,0,1-.5-6.526a2.925,2.925,0,0,1,2.265.853A3.5,3.5,0,0,1,2.553-3.221Zm-4.689,0A2.684,2.684,0,0,0-1.727-1.6a1.43,1.43,0,0,0,1.222.545q1.63,0,1.63-2.167T-.5-5.392a1.44,1.44,0,0,0-1.226.547A2.672,2.672,0,0,0-2.136-3.221ZM8.945-3.274a3.164,3.164,0,0,1-.9,2.43A3.683,3.683,0,0,1,5.434,0H3.615V-6.425H5.632a3.4,3.4,0,0,1,2.443.831A3.055,3.055,0,0,1,8.945-3.274ZM7.53-3.239q0-2.07-1.828-2.07H4.977v4.184h.584Q7.53-1.125,7.53-3.239ZM-21.337,2.617a1.388,1.388,0,0,0-1.191.578,2.688,2.688,0,0,0-.422,1.611q0,2.149,1.613,2.149A5.1,5.1,0,0,0-19.7,6.616V7.758a4.552,4.552,0,0,1-1.767.33,2.694,2.694,0,0,1-2.145-.85A3.6,3.6,0,0,1-24.351,4.8a3.986,3.986,0,0,1,.365-1.756,2.636,2.636,0,0,1,1.048-1.156,3.1,3.1,0,0,1,1.6-.4,4.323,4.323,0,0,1,1.881.453L-19.9,3.043a7.274,7.274,0,0,0-.725-.3A2.163,2.163,0,0,0-21.337,2.617ZM-14.668,8l-.466-1.529h-2.342L-17.941,8h-1.468l2.268-6.451h1.666L-13.2,8Zm-.791-2.672q-.646-2.079-.727-2.351t-.116-.431q-.145.563-.831,2.782ZM-6.961,8H-8.693l-2.795-4.86h-.04q.083,1.288.083,1.837V8h-1.217V1.575h1.718l2.791,4.812h.031q-.066-1.252-.066-1.771V1.575h1.226Zm4.076-5.383a1.388,1.388,0,0,0-1.191.578A2.688,2.688,0,0,0-4.5,4.805q0,2.149,1.613,2.149a5.1,5.1,0,0,0,1.639-.338V7.758a4.552,4.552,0,0,1-1.767.33,2.694,2.694,0,0,1-2.145-.85A3.6,3.6,0,0,1-5.9,4.8a3.986,3.986,0,0,1,.365-1.756A2.636,2.636,0,0,1-4.487,1.885a3.1,3.1,0,0,1,1.6-.4A4.323,4.323,0,0,1-1,1.936l-.439,1.107a7.274,7.274,0,0,0-.725-.3A2.163,2.163,0,0,0-2.885,2.617ZM3.551,8h-3.7V1.575h3.7V2.691H1.213V4.1H3.388V5.218H1.213V6.875H3.551Zm1.07,0V1.575H5.983v5.3H8.589V8ZM9.436,8V1.575H10.8v5.3H13.4V8ZM17.95,8h-3.7V1.575h3.7V2.691H15.612V4.1h2.175V5.218H15.612V6.875H17.95Zm6.4-3.274a3.164,3.164,0,0,1-.9,2.43A3.683,3.683,0,0,1,20.84,8H19.021V1.575h2.017a3.4,3.4,0,0,1,2.443.831A3.055,3.055,0,0,1,24.351,4.726Zm-1.415.035q0-2.07-1.828-2.07h-.725V6.875h.584Q22.936,6.875,22.936,4.761Z" transform="translate(1323.566 559.788)" fill="#fff"/>
    </g>
    <g id="report" transform="translate(-1763.023 -860.446)">
      <path id="Path_788" data-name="Path 788" d="M207.223,107.41a4.259,4.259,0,0,0-4.251,4.545l1.445,21.7a2.7,2.7,0,0,0,2.69,2.517h.232a2.7,2.7,0,0,0,2.69-2.517l1.447-21.7a4.259,4.259,0,0,0-4.253-4.545Zm1.014,26.126a.9.9,0,0,1-.9.839h-.232a.9.9,0,0,1-.9-.84l-1.447-21.7a2.464,2.464,0,1,1,4.918,0Zm0,0" transform="translate(-121.318 -63.972)" fill="#fff"/>
      <path id="Path_789" data-name="Path 789" d="M212.482,379.41a3.6,3.6,0,1,0,3.6,3.6A3.6,3.6,0,0,0,212.482,379.41Zm0,5.393a1.8,1.8,0,1,1,1.8-1.8A1.8,1.8,0,0,1,212.482,384.8Zm0,0" transform="translate(-126.578 -305.412)" fill="#fff"/>
    </g>
  </g>
</svg>
