<svg xmlns="http://www.w3.org/2000/svg" width="17.592" height="18.341" viewBox="0 0 17.592 18.341">
  <g id="Group_552" data-name="Group 552" transform="translate(-25.057 -314.886)">
    <g id="Group_377" data-name="Group 377" transform="translate(25.685 315.39)">
      <path id="Path_708" data-name="Path 708" d="M378.976-12055.048s0,1.442-2.166,1.471-2.059-1.471-2.059-1.471.063,1.421-2.424,1.471c-2,.032-1.408-3.948-1.408-3.948l3.832-3.387h8.331" transform="translate(-370.81 12061.063)" fill="none" stroke="#0d2134" stroke-width="1.3"/>
      <path id="Path_710" data-name="Path 710" d="M370.838-12056.705s0,1.443,2.166,1.471,2.059-1.471,2.059-1.471-.063,1.422,2.424,1.471c2,.033,1.408-3.948,1.408-3.948l-4.348-3.536" transform="translate(-362.668 12062.719)" fill="none" stroke="#0d2134" stroke-width="1.3"/>
      <path id="Path_709" data-name="Path 709" d="M386.033-11972.627v9.7H399.66v-9.7" transform="translate(-384.743 11980.112)" fill="none" stroke="#0d2134" stroke-width="1.3"/>
      <line id="Line_106" data-name="Line 106" x2="15.787" transform="translate(0 3.84)" fill="none" stroke="#0d2134" stroke-width="1.3"/>
      <g id="Rectangle_1674" data-name="Rectangle 1674" transform="translate(7.935 9.033)" fill="none" stroke="#0d2134" stroke-width="1.3">
        <rect width="5.567" height="5.567" stroke="none"/>
        <rect x="0.65" y="0.65" width="4.267" height="4.267" fill="none"/>
      </g>
      <g id="Rectangle_1675" data-name="Rectangle 1675" transform="translate(2.783 9.033)" fill="none" stroke="#0d2134" stroke-width="1.3">
        <rect width="4.487" height="8.724" stroke="none"/>
        <rect x="0.65" y="0.65" width="3.187" height="7.424" fill="none"/>
      </g>
    </g>
  </g>
</svg>
