<svg xmlns="http://www.w3.org/2000/svg" width="56" height="75.423" viewBox="0 0 56 75.423">
  <g id="Group_568" data-name="Group 568" transform="translate(-1232.566 -443.788)">
    <rect id="Rectangle_1859" data-name="Rectangle 1859" width="56" height="75.423" rx="4" transform="translate(1232.566 443.788)" fill="#0d2134"/>
    <path id="Path_787" data-name="Path 787" d="M-7.737-3.274a3.164,3.164,0,0,1-.9,2.43A3.683,3.683,0,0,1-11.248,0h-1.819V-6.425h2.017a3.4,3.4,0,0,1,2.443.831A3.055,3.055,0,0,1-7.737-3.274Zm-1.415.035q0-2.07-1.828-2.07h-.725v4.184h.584Q-9.152-1.125-9.152-3.239ZM-6.676,0V-6.425h1.362V0Zm8.04-3.274a3.164,3.164,0,0,1-.9,2.43A3.683,3.683,0,0,1-2.147,0H-3.966V-6.425h2.017a3.4,3.4,0,0,1,2.443.831A3.055,3.055,0,0,1,1.365-3.274Zm-1.415.035q0-2.07-1.828-2.07H-2.6v4.184h.584Q-.051-1.125-.051-3.239ZM8.126,0H6.394L3.6-4.86H3.56q.083,1.288.083,1.837V0H2.426V-6.425H4.144L6.935-1.613h.031Q6.9-2.865,6.9-3.384V-6.425H8.126Zm3.826,0H10.589V-5.291H8.845V-6.425H13.7v1.134H11.951ZM-15.089,2.617a1.388,1.388,0,0,0-1.191.578A2.688,2.688,0,0,0-16.7,4.805q0,2.149,1.613,2.149a5.1,5.1,0,0,0,1.639-.338V7.758a4.552,4.552,0,0,1-1.767.33,2.694,2.694,0,0,1-2.145-.85A3.6,3.6,0,0,1-18.1,4.8a3.986,3.986,0,0,1,.365-1.756,2.636,2.636,0,0,1,1.048-1.156,3.1,3.1,0,0,1,1.6-.4,4.323,4.323,0,0,1,1.881.453l-.439,1.107a7.274,7.274,0,0,0-.725-.3A2.163,2.163,0,0,0-15.089,2.617ZM-6.7,4.779a3.486,3.486,0,0,1-.791,2.452,2.932,2.932,0,0,1-2.268.857,2.932,2.932,0,0,1-2.268-.857,3.5,3.5,0,0,1-.791-2.461,3.452,3.452,0,0,1,.793-2.45,2.966,2.966,0,0,1,2.274-.846,2.925,2.925,0,0,1,2.265.853A3.5,3.5,0,0,1-6.7,4.779Zm-4.689,0A2.684,2.684,0,0,0-10.982,6.4a1.43,1.43,0,0,0,1.222.545q1.63,0,1.63-2.167T-9.752,2.608a1.44,1.44,0,0,0-1.226.547A2.672,2.672,0,0,0-11.391,4.779ZM-5.641,8V1.575h1.362v5.3h2.606V8ZM-.826,8V1.575H.536v5.3H3.142V8ZM7.688,8h-3.7V1.575h3.7V2.691H5.351V4.1H7.526V5.218H5.351V6.875H7.688Zm3.8-5.383a1.388,1.388,0,0,0-1.191.578,2.688,2.688,0,0,0-.422,1.611q0,2.149,1.613,2.149a5.1,5.1,0,0,0,1.639-.338V7.758a4.552,4.552,0,0,1-1.767.33,2.694,2.694,0,0,1-2.145-.85A3.6,3.6,0,0,1,8.473,4.8a3.986,3.986,0,0,1,.365-1.756A2.636,2.636,0,0,1,9.886,1.885a3.1,3.1,0,0,1,1.6-.4,4.323,4.323,0,0,1,1.881.453l-.439,1.107a7.274,7.274,0,0,0-.725-.3A2.163,2.163,0,0,0,11.488,2.617ZM16.7,8H15.34V2.709H13.6V1.575h4.852V2.709H16.7Z" transform="translate(1260.346 500)" fill="#fff"/>
    <path id="Path_788" data-name="Path 788" d="M10.672,0H5.141L-.172-8.641-5.484,0h-5.187l7.578-11.781-7.094-11.062h5.344L.078-14.625l4.828-8.219h5.219L2.953-11.516Z" transform="translate(1260.209 482)" fill="#fff"/>
  </g>
</svg>
