<svg xmlns="http://www.w3.org/2000/svg" width="56" height="75.423" viewBox="0 0 56 75.423">
  <g id="Group_566" data-name="Group 566" transform="translate(2777 1376)">
    <g id="Group_568" data-name="Group 568" transform="translate(-4011.566 -1628.788)">
      <g id="Group_567" data-name="Group 567">
        <rect id="Rectangle_1856" data-name="Rectangle 1856" width="56" height="75.423" rx="4" transform="translate(1234.566 252.788)" fill="#a71f47"/>
        <path id="Path_786" data-name="Path 786" d="M-8.99-17.322v-5.566H8.99v5.566Z" transform="translate(1262 303)" fill="#fff"/>
      </g>
    </g>
    <path id="Path_784" data-name="Path 784" d="M-11.541-3.274a3.164,3.164,0,0,1-.9,2.43A3.683,3.683,0,0,1-15.052,0h-1.819V-6.425h2.017a3.4,3.4,0,0,1,2.443.831A3.055,3.055,0,0,1-11.541-3.274Zm-1.415.035q0-2.07-1.828-2.07h-.725v4.184h.584Q-12.956-1.125-12.956-3.239ZM-10.479,0V-6.425h1.362V0Zm6.5-1.784A1.661,1.661,0,0,1-4.6-.413a2.72,2.72,0,0,1-1.742.5A4.092,4.092,0,0,1-8.165-.3V-1.564a7.5,7.5,0,0,0,1.1.409,3.257,3.257,0,0,0,.824.119,1.172,1.172,0,0,0,.688-.171.586.586,0,0,0,.24-.51.563.563,0,0,0-.105-.336,1.18,1.18,0,0,0-.31-.283,7.968,7.968,0,0,0-.833-.435A3.947,3.947,0,0,1-7.445-3.3a2,2,0,0,1-.47-.593,1.693,1.693,0,0,1-.176-.791,1.66,1.66,0,0,1,.578-1.34,2.4,2.4,0,0,1,1.6-.488,3.772,3.772,0,0,1,.956.119,6.57,6.57,0,0,1,.951.334l-.439,1.059A6.43,6.43,0,0,0-5.3-5.3a2.737,2.737,0,0,0-.661-.083.876.876,0,0,0-.593.18.594.594,0,0,0-.207.47.582.582,0,0,0,.083.314.918.918,0,0,0,.266.259,8.221,8.221,0,0,0,.864.45,3.436,3.436,0,0,1,1.235.864A1.685,1.685,0,0,1-3.977-1.784ZM.85,0,.385-1.529H-1.958L-2.424,0H-3.891l2.268-6.451H.042L2.318,0ZM.059-2.672Q-.587-4.75-.668-5.023t-.116-.431q-.145.563-.831,2.782Zm2.8-3.753h2a3.853,3.853,0,0,1,1.984.389A1.354,1.354,0,0,1,7.458-4.8a1.559,1.559,0,0,1-.27.945,1.08,1.08,0,0,1-.719.444v.044a1.415,1.415,0,0,1,.881.51,1.658,1.658,0,0,1,.27.993A1.637,1.637,0,0,1,6.985-.492,2.746,2.746,0,0,1,5.261,0h-2.4ZM4.219-3.88H5.01a1.446,1.446,0,0,0,.8-.171.639.639,0,0,0,.248-.567.567.567,0,0,0-.27-.53,1.737,1.737,0,0,0-.855-.16H4.219Zm0,1.081v1.674h.888a1.317,1.317,0,0,0,.831-.215A.8.8,0,0,0,6.205-2q0-.8-1.143-.8ZM8.634,0V-6.425H10v5.3H12.6V0Zm8.515,0h-3.7V-6.425h3.7v1.116H14.81V-3.9h2.175v1.116H14.81v1.657h2.338ZM-18.427,2.617a1.388,1.388,0,0,0-1.191.578,2.688,2.688,0,0,0-.422,1.611q0,2.149,1.613,2.149a5.1,5.1,0,0,0,1.639-.338V7.758a4.552,4.552,0,0,1-1.767.33,2.694,2.694,0,0,1-2.145-.85A3.6,3.6,0,0,1-21.442,4.8a3.986,3.986,0,0,1,.365-1.756,2.636,2.636,0,0,1,1.048-1.156,3.1,3.1,0,0,1,1.6-.4,4.323,4.323,0,0,1,1.881.453l-.439,1.107a7.274,7.274,0,0,0-.725-.3A2.163,2.163,0,0,0-18.427,2.617Zm8.387,2.162a3.486,3.486,0,0,1-.791,2.452,2.932,2.932,0,0,1-2.268.857,2.932,2.932,0,0,1-2.268-.857,3.5,3.5,0,0,1-.791-2.461,3.452,3.452,0,0,1,.793-2.45,2.966,2.966,0,0,1,2.274-.846,2.925,2.925,0,0,1,2.265.853A3.5,3.5,0,0,1-10.04,4.779Zm-4.689,0A2.684,2.684,0,0,0-14.32,6.4a1.43,1.43,0,0,0,1.222.545q1.63,0,1.63-2.167T-13.09,2.608a1.44,1.44,0,0,0-1.226.547A2.672,2.672,0,0,0-14.729,4.779ZM-6.258,8-7.8,2.959h-.04q.083,1.538.083,2.052V8H-8.978V1.575h1.854L-5.6,6.488h.026l1.613-4.913H-2.11V8H-3.38V4.959q0-.215.007-.5t.059-1.494h-.04L-5.01,8ZM.6,4.6h.448a1.493,1.493,0,0,0,.94-.248A.869.869,0,0,0,2.3,3.627a.891.891,0,0,0-.261-.708,1.225,1.225,0,0,0-.82-.229H.6Zm3.076-1.02a1.964,1.964,0,0,1-.648,1.586,2.772,2.772,0,0,1-1.844.549H.6V8H-.762V1.575H1.29a2.73,2.73,0,0,1,1.778.5A1.835,1.835,0,0,1,3.676,3.579ZM8.1,8,7.638,6.471H5.3L4.83,8H3.362L5.63,1.549H7.3L9.572,8ZM7.313,5.328Q6.667,3.25,6.585,2.977t-.116-.431q-.145.563-.831,2.782ZM15.81,8H14.078L11.283,3.14h-.04q.083,1.288.083,1.837V8H10.11V1.575h1.718l2.791,4.812h.031q-.066-1.252-.066-1.771V1.575H15.81Zm3.347-3.779L20.5,1.575h1.468L19.833,5.5V8H18.48V5.543L16.348,1.575h1.477Z" transform="translate(-2749 -1320)" fill="#fff"/>
  </g>
</svg>
