<svg xmlns="http://www.w3.org/2000/svg" width="56" height="75.423" viewBox="0 0 56 75.423">
  <g id="Group_568" data-name="Group 568" transform="translate(-1234.566 -252.788)">
    <g id="Group_567" data-name="Group 567">
      <rect id="Rectangle_1856" data-name="Rectangle 1856" width="56" height="75.423" rx="4" transform="translate(1234.566 252.788)" fill="#a71f47"/>
      <path id="Path_787" data-name="Path 787" d="M-11.541-3.274a3.164,3.164,0,0,1-.9,2.43A3.683,3.683,0,0,1-15.052,0h-1.819V-6.425h2.017a3.4,3.4,0,0,1,2.443.831A3.055,3.055,0,0,1-11.541-3.274Zm-1.415.035q0-2.07-1.828-2.07h-.725v4.184h.584Q-12.956-1.125-12.956-3.239ZM-10.479,0V-6.425h1.362V0Zm6.5-1.784A1.661,1.661,0,0,1-4.6-.413a2.72,2.72,0,0,1-1.742.5A4.092,4.092,0,0,1-8.165-.3V-1.564a7.5,7.5,0,0,0,1.1.409,3.257,3.257,0,0,0,.824.119,1.172,1.172,0,0,0,.688-.171.586.586,0,0,0,.24-.51.563.563,0,0,0-.105-.336,1.18,1.18,0,0,0-.31-.283,7.968,7.968,0,0,0-.833-.435A3.947,3.947,0,0,1-7.445-3.3a2,2,0,0,1-.47-.593,1.693,1.693,0,0,1-.176-.791,1.66,1.66,0,0,1,.578-1.34,2.4,2.4,0,0,1,1.6-.488,3.772,3.772,0,0,1,.956.119,6.57,6.57,0,0,1,.951.334l-.439,1.059A6.43,6.43,0,0,0-5.3-5.3a2.737,2.737,0,0,0-.661-.083.876.876,0,0,0-.593.18.594.594,0,0,0-.207.47.582.582,0,0,0,.083.314.918.918,0,0,0,.266.259,8.221,8.221,0,0,0,.864.45,3.436,3.436,0,0,1,1.235.864A1.685,1.685,0,0,1-3.977-1.784ZM.85,0,.385-1.529H-1.958L-2.424,0H-3.891l2.268-6.451H.042L2.318,0ZM.059-2.672Q-.587-4.75-.668-5.023t-.116-.431q-.145.563-.831,2.782Zm2.8-3.753h2a3.853,3.853,0,0,1,1.984.389A1.354,1.354,0,0,1,7.458-4.8a1.559,1.559,0,0,1-.27.945,1.08,1.08,0,0,1-.719.444v.044a1.415,1.415,0,0,1,.881.51,1.658,1.658,0,0,1,.27.993A1.637,1.637,0,0,1,6.985-.492,2.746,2.746,0,0,1,5.261,0h-2.4ZM4.219-3.88H5.01a1.446,1.446,0,0,0,.8-.171.639.639,0,0,0,.248-.567.567.567,0,0,0-.27-.53,1.737,1.737,0,0,0-.855-.16H4.219Zm0,1.081v1.674h.888a1.317,1.317,0,0,0,.831-.215A.8.8,0,0,0,6.205-2q0-.8-1.143-.8ZM8.634,0V-6.425H10v5.3H12.6V0Zm8.515,0h-3.7V-6.425h3.7v1.116H14.81V-3.9h2.175v1.116H14.81v1.657h2.338ZM-4.928,1.575V5.732A2.4,2.4,0,0,1-5.246,6.98a2.074,2.074,0,0,1-.921.822,3.292,3.292,0,0,1-1.424.286,2.726,2.726,0,0,1-1.925-.635A2.253,2.253,0,0,1-10.2,5.715V1.575h1.358V5.508a1.647,1.647,0,0,0,.3,1.09,1.242,1.242,0,0,0,.989.347A1.215,1.215,0,0,0-6.587,6.6a1.656,1.656,0,0,0,.3-1.1V1.575Zm5.1,4.641A1.661,1.661,0,0,1-.458,7.587a2.72,2.72,0,0,1-1.742.5A4.092,4.092,0,0,1-4.02,7.7V6.436a7.5,7.5,0,0,0,1.1.409,3.257,3.257,0,0,0,.824.119,1.172,1.172,0,0,0,.688-.171.586.586,0,0,0,.24-.51.563.563,0,0,0-.105-.336,1.18,1.18,0,0,0-.31-.283,7.968,7.968,0,0,0-.833-.435A3.947,3.947,0,0,1-3.3,4.7,2,2,0,0,1-3.77,4.1a1.693,1.693,0,0,1-.176-.791,1.66,1.66,0,0,1,.578-1.34,2.4,2.4,0,0,1,1.6-.488A3.772,3.772,0,0,1-.814,1.6a6.57,6.57,0,0,1,.951.334L-.3,2.995a6.43,6.43,0,0,0-.85-.294,2.737,2.737,0,0,0-.661-.083.876.876,0,0,0-.593.18.594.594,0,0,0-.207.47.582.582,0,0,0,.083.314.918.918,0,0,0,.266.259,8.221,8.221,0,0,0,.864.45,3.436,3.436,0,0,1,1.235.864A1.685,1.685,0,0,1,.168,6.216ZM4.763,8h-3.7V1.575h3.7V2.691H2.425V4.1H4.6V5.218H2.425V6.875H4.763ZM7.2,4.427h.439a1.681,1.681,0,0,0,.954-.215A.769.769,0,0,0,8.9,3.535a.7.7,0,0,0-.314-.65,1.907,1.907,0,0,0-.973-.193H7.2Zm0,1.107V8H5.833V1.575H7.705a3.2,3.2,0,0,1,1.938.477A1.7,1.7,0,0,1,10.272,3.5,1.7,1.7,0,0,1,9.96,4.509a2.064,2.064,0,0,1-.883.692q1.45,2.167,1.89,2.8H9.454L7.92,5.535Z" transform="translate(1262.566 309)" fill="#ff4848"/>
      <path id="Path_786" data-name="Path 786" d="M-8.99-17.322v-5.566H8.99v5.566Z" transform="translate(1262 303)" fill="#ff4848"/>
    </g>
  </g>
</svg>
