<svg xmlns="http://www.w3.org/2000/svg" width="56" height="75.423" viewBox="0 0 56 75.423">
  <g id="Group_566" data-name="Group 566" transform="translate(-1232.566 -443.788)">
    <rect id="Rectangle_1859" data-name="Rectangle 1859" width="56" height="75.423" rx="4" transform="translate(1232.566 443.788)" fill="#0d2134"/>
    <path id="Path_786" data-name="Path 786" d="M-5.033,0h-3.7V-6.425h3.7v1.116H-7.371V-3.9H-5.2v1.116H-7.371v1.657h2.338Zm6.4-3.274a3.164,3.164,0,0,1-.9,2.43A3.683,3.683,0,0,1-2.144,0H-3.963V-6.425h2.017A3.4,3.4,0,0,1,.5-5.594,3.055,3.055,0,0,1,1.368-3.274Zm-1.415.035q0-2.07-1.828-2.07H-2.6v4.184h.584Q-.047-1.125-.047-3.239ZM2.429,0V-6.425H3.792V0ZM7.617,0H6.255V-5.291H4.51V-6.425H9.362v1.134H7.617Z" transform="translate(1260.346 505)" fill="#fff"/>
    <g id="edit" transform="translate(1246.974 454.386)">
      <path id="Path_784" data-name="Path 784" d="M28.548,55.488a.77.77,0,0,0-.77.77V63.1a2.313,2.313,0,0,1-2.311,2.311H3.852A2.313,2.313,0,0,1,1.541,63.1V43.024a2.314,2.314,0,0,1,2.311-2.311h6.84a.77.77,0,0,0,0-1.541H3.852A3.856,3.856,0,0,0,0,43.024V63.1A3.856,3.856,0,0,0,3.852,66.95H25.467A3.856,3.856,0,0,0,29.318,63.1v-6.84A.77.77,0,0,0,28.548,55.488Zm0,0" transform="translate(0 -35.914)" fill="#fff"/>
      <path id="Path_785" data-name="Path 785" d="M128.869,1.276a3.467,3.467,0,0,0-4.9,0L110.223,15.019a.77.77,0,0,0-.2.339l-1.807,6.525a.77.77,0,0,0,.948.948l6.525-1.808a.77.77,0,0,0,.339-.2L129.773,7.083a3.47,3.47,0,0,0,0-4.9ZM111.9,15.52,123.149,4.272,126.777,7.9,115.529,19.148Zm-.725,1.454,2.9,2.9-4.009,1.111ZM128.683,5.993l-.817.817-3.628-3.628.817-.817a1.926,1.926,0,0,1,2.723,0l.9.9A1.929,1.929,0,0,1,128.683,5.993Zm0,0" transform="translate(-99.856)" fill="#fff"/>
    </g>
  </g>
</svg>
