<svg id="Group_322" data-name="Group 322" xmlns="http://www.w3.org/2000/svg" width="72.916" height="32.002" viewBox="0 0 72.916 32.002">
  <path id="Path_1" data-name="Path 1" d="M-.2,0-9.56,30.911H9.994l7.513-7.716H.541L5.229,7.716H22.2L19.356,0ZM5.588,11.6,3.251,19.314H8.906L16.419,11.6Z" transform="translate(9.56 1.068)" fill="#fff"/>
  <path id="Path_8" data-name="Path 8" d="M-.62-.675,5.361-20.422Q2.5-17,.706-14.865-5.528-7.571-9.362-7.572q-3.786,0-5.618-7.244-.693-2.778-1.321-5.606L-22.282-.675H-30l7.8-25.751a8.819,8.819,0,0,1,3.11-4.415,7.7,7.7,0,0,1,4.821-1.836q4.266,0,6.485,8.335.749,3.226,1.545,6.45,2.325-2.778,4.7-5.557A54.306,54.306,0,0,1,4.529-29.7q3.586-2.978,6.222-2.977a4.145,4.145,0,0,1,3.709,1.836,5.016,5.016,0,0,1,.436,4.415L7.1-.675Z" transform="translate(57.715 32.677)" fill="#fff"/>
</svg>
