<svg id="_34400" data-name="34400" xmlns="http://www.w3.org/2000/svg" width="19.068" height="14.301" viewBox="0 0 19.068 14.301">
  <path id="Path_781" data-name="Path 781" d="M19.068,72.568a2.362,2.362,0,0,1-.306,1.146l-6.02-6.736,5.955-5.21a2.366,2.366,0,0,1,.371,1.266v9.534ZM9.534,68.2l8.286-7.25a2.354,2.354,0,0,0-1.136-.3H2.383a2.345,2.345,0,0,0-1.135.3Zm2.31-.439L9.926,69.442a.6.6,0,0,1-.784,0L7.223,67.763l-6.1,6.822a2.355,2.355,0,0,0,1.257.367h14.3a2.355,2.355,0,0,0,1.257-.367ZM.371,61.768A2.366,2.366,0,0,0,0,63.035v9.534a2.355,2.355,0,0,0,.306,1.146l6.02-6.737Z" transform="translate(0 -60.651)" fill="#fff"/>
</svg>
