<svg xmlns="http://www.w3.org/2000/svg" width="56" height="75.423" viewBox="0 0 56 75.423">
  <g id="Group_567" data-name="Group 567" transform="translate(2711 1376)">
    <g id="Group_567-2" data-name="Group 567" transform="translate(-3945.566 -1628.788)">
      <g id="Group_568" data-name="Group 568">
        <rect id="Rectangle_1856" data-name="Rectangle 1856" width="56" height="75.423" rx="4" transform="translate(1234.566 252.788)" fill="#1fa753"/>
        <path id="Path_786" data-name="Path 786" d="M-8.99-17.322v-5.566H8.99v5.566Z" transform="translate(1262 303)" fill="#fff"/>
        <path id="Path_788" data-name="Path 788" d="M8.99-22.888v5.566H-8.99v-5.566Z" transform="translate(1241.895 282.895) rotate(90)" fill="#fff"/>
      </g>
    </g>
    <path id="Path_785" data-name="Path 785" d="M-12.186,0h-3.7V-6.425h3.7v1.116h-2.338V-3.9h2.175v1.116h-2.175v1.657h2.338Zm6.77,0H-7.147L-9.942-4.86h-.04Q-9.9-3.573-9.9-3.023V0h-1.217V-6.425H-9.4l2.791,4.812h.031q-.066-1.252-.066-1.771V-6.425h1.226Zm5.28,0L-.6-1.529H-2.943L-3.409,0H-4.877l2.268-6.451H-.944L1.333,0ZM-.926-2.672q-.646-2.079-.727-2.351t-.116-.431q-.145.563-.831,2.782Zm2.8-3.753h2a3.853,3.853,0,0,1,1.984.389A1.354,1.354,0,0,1,6.472-4.8a1.559,1.559,0,0,1-.27.945,1.08,1.08,0,0,1-.719.444v.044a1.415,1.415,0,0,1,.881.51,1.658,1.658,0,0,1,.27.993A1.637,1.637,0,0,1,6-.492,2.746,2.746,0,0,1,4.275,0h-2.4ZM3.233-3.88h.791a1.446,1.446,0,0,0,.8-.171.639.639,0,0,0,.248-.567.567.567,0,0,0-.27-.53,1.737,1.737,0,0,0-.855-.16H3.233Zm0,1.081v1.674h.888a1.317,1.317,0,0,0,.831-.215A.8.8,0,0,0,5.22-2q0-.8-1.143-.8ZM7.648,0V-6.425H9.01v5.3h2.606V0Zm8.515,0h-3.7V-6.425h3.7v1.116H13.825V-3.9H16v1.116H13.825v1.657h2.338Zm-34.59,2.617a1.388,1.388,0,0,0-1.191.578,2.688,2.688,0,0,0-.422,1.611q0,2.149,1.613,2.149a5.1,5.1,0,0,0,1.639-.338V7.758a4.552,4.552,0,0,1-1.767.33,2.694,2.694,0,0,1-2.145-.85A3.6,3.6,0,0,1-21.442,4.8a3.986,3.986,0,0,1,.365-1.756,2.636,2.636,0,0,1,1.048-1.156,3.1,3.1,0,0,1,1.6-.4,4.323,4.323,0,0,1,1.881.453l-.439,1.107a7.274,7.274,0,0,0-.725-.3A2.163,2.163,0,0,0-18.427,2.617Zm8.387,2.162a3.486,3.486,0,0,1-.791,2.452,2.932,2.932,0,0,1-2.268.857,2.932,2.932,0,0,1-2.268-.857,3.5,3.5,0,0,1-.791-2.461,3.452,3.452,0,0,1,.793-2.45,2.966,2.966,0,0,1,2.274-.846,2.925,2.925,0,0,1,2.265.853A3.5,3.5,0,0,1-10.04,4.779Zm-4.689,0A2.684,2.684,0,0,0-14.32,6.4a1.43,1.43,0,0,0,1.222.545q1.63,0,1.63-2.167T-13.09,2.608a1.44,1.44,0,0,0-1.226.547A2.672,2.672,0,0,0-14.729,4.779ZM-6.258,8-7.8,2.959h-.04q.083,1.538.083,2.052V8H-8.978V1.575h1.854L-5.6,6.488h.026l1.613-4.913H-2.11V8H-3.38V4.959q0-.215.007-.5t.059-1.494h-.04L-5.01,8ZM.6,4.6h.448a1.493,1.493,0,0,0,.94-.248A.869.869,0,0,0,2.3,3.627a.891.891,0,0,0-.261-.708,1.225,1.225,0,0,0-.82-.229H.6Zm3.076-1.02a1.964,1.964,0,0,1-.648,1.586,2.772,2.772,0,0,1-1.844.549H.6V8H-.762V1.575H1.29a2.73,2.73,0,0,1,1.778.5A1.835,1.835,0,0,1,3.676,3.579ZM8.1,8,7.638,6.471H5.3L4.83,8H3.362L5.63,1.549H7.3L9.572,8ZM7.313,5.328Q6.667,3.25,6.585,2.977t-.116-.431q-.145.563-.831,2.782ZM15.81,8H14.078L11.283,3.14h-.04q.083,1.288.083,1.837V8H10.11V1.575h1.718l2.791,4.812h.031q-.066-1.252-.066-1.771V1.575H15.81Zm3.347-3.779L20.5,1.575h1.468L19.833,5.5V8H18.48V5.543L16.348,1.575h1.477Z" transform="translate(-2683 -1319)" fill="#fff"/>
  </g>
</svg>
