<svg xmlns="http://www.w3.org/2000/svg" width="56" height="75.423" viewBox="0 0 56 75.423">
  <g id="Group_567" data-name="Group 567" transform="translate(-1234.566 -252.788)">
    <g id="Group_568" data-name="Group 568">
      <rect id="Rectangle_1856" data-name="Rectangle 1856" width="56" height="75.423" rx="4" transform="translate(1234.566 252.788)" fill="#1fa753"/>
      <path id="Path_787" data-name="Path 787" d="M-12.186,0h-3.7V-6.425h3.7v1.116h-2.338V-3.9h2.175v1.116h-2.175v1.657h2.338Zm6.77,0H-7.147L-9.942-4.86h-.04Q-9.9-3.573-9.9-3.023V0h-1.217V-6.425H-9.4l2.791,4.812h.031q-.066-1.252-.066-1.771V-6.425h1.226Zm5.28,0L-.6-1.529H-2.943L-3.409,0H-4.877l2.268-6.451H-.944L1.333,0ZM-.926-2.672q-.646-2.079-.727-2.351t-.116-.431q-.145.563-.831,2.782Zm2.8-3.753h2a3.853,3.853,0,0,1,1.984.389A1.354,1.354,0,0,1,6.472-4.8a1.559,1.559,0,0,1-.27.945,1.08,1.08,0,0,1-.719.444v.044a1.415,1.415,0,0,1,.881.51,1.658,1.658,0,0,1,.27.993A1.637,1.637,0,0,1,6-.492,2.746,2.746,0,0,1,4.275,0h-2.4ZM3.233-3.88h.791a1.446,1.446,0,0,0,.8-.171.639.639,0,0,0,.248-.567.567.567,0,0,0-.27-.53,1.737,1.737,0,0,0-.855-.16H3.233Zm0,1.081v1.674h.888a1.317,1.317,0,0,0,.831-.215A.8.8,0,0,0,5.22-2q0-.8-1.143-.8ZM7.648,0V-6.425H9.01v5.3h2.606V0Zm8.515,0h-3.7V-6.425h3.7v1.116H13.825V-3.9H16v1.116H13.825v1.657h2.338ZM-4.928,1.575V5.732A2.4,2.4,0,0,1-5.246,6.98a2.074,2.074,0,0,1-.921.822,3.292,3.292,0,0,1-1.424.286,2.726,2.726,0,0,1-1.925-.635A2.253,2.253,0,0,1-10.2,5.715V1.575h1.358V5.508a1.647,1.647,0,0,0,.3,1.09,1.242,1.242,0,0,0,.989.347A1.215,1.215,0,0,0-6.587,6.6a1.656,1.656,0,0,0,.3-1.1V1.575Zm5.1,4.641A1.661,1.661,0,0,1-.458,7.587a2.72,2.72,0,0,1-1.742.5A4.092,4.092,0,0,1-4.02,7.7V6.436a7.5,7.5,0,0,0,1.1.409,3.257,3.257,0,0,0,.824.119,1.172,1.172,0,0,0,.688-.171.586.586,0,0,0,.24-.51.563.563,0,0,0-.105-.336,1.18,1.18,0,0,0-.31-.283,7.968,7.968,0,0,0-.833-.435A3.947,3.947,0,0,1-3.3,4.7,2,2,0,0,1-3.77,4.1a1.693,1.693,0,0,1-.176-.791,1.66,1.66,0,0,1,.578-1.34,2.4,2.4,0,0,1,1.6-.488A3.772,3.772,0,0,1-.814,1.6a6.57,6.57,0,0,1,.951.334L-.3,2.995a6.43,6.43,0,0,0-.85-.294,2.737,2.737,0,0,0-.661-.083.876.876,0,0,0-.593.18.594.594,0,0,0-.207.47.582.582,0,0,0,.083.314.918.918,0,0,0,.266.259,8.221,8.221,0,0,0,.864.45,3.436,3.436,0,0,1,1.235.864A1.685,1.685,0,0,1,.168,6.216ZM4.763,8h-3.7V1.575h3.7V2.691H2.425V4.1H4.6V5.218H2.425V6.875H4.763ZM7.2,4.427h.439a1.681,1.681,0,0,0,.954-.215A.769.769,0,0,0,8.9,3.535a.7.7,0,0,0-.314-.65,1.907,1.907,0,0,0-.973-.193H7.2Zm0,1.107V8H5.833V1.575H7.705a3.2,3.2,0,0,1,1.938.477A1.7,1.7,0,0,1,10.272,3.5,1.7,1.7,0,0,1,9.96,4.509a2.064,2.064,0,0,1-.883.692q1.45,2.167,1.89,2.8H9.454L7.92,5.535Z" transform="translate(1262.566 309)" fill="#fff"/>
      <path id="Path_786" data-name="Path 786" d="M-8.99-17.322v-5.566H8.99v5.566Z" transform="translate(1262 303)" fill="#fff"/>
      <path id="Path_788" data-name="Path 788" d="M8.99-22.888v5.566H-8.99v-5.566Z" transform="translate(1241.895 282.895) rotate(90)" fill="#fff"/>
    </g>
  </g>
</svg>
