<svg id="express-merchants_logo" xmlns="http://www.w3.org/2000/svg" width="259.217" height="70.617" viewBox="0 0 259.217 70.617">
  <g id="Group_566" data-name="Group 566" transform="translate(12.341)">
    <path id="Path_784" data-name="Path 784" d="M52.682,29.671H33.91L42.9,0H61.667l2.726,7.406H48.107l-4.5,14.859H59.895ZM51.637,18.539h-5.43l2.242-7.406h10.4Z" transform="translate(-33.91)" fill="#fff"/>
    <path id="Path_785" data-name="Path 785" d="M118.548,14.9l5.1,14.765h-8.924l-2.7-7.959-7.562,7.959H95.58L109.711,14.9,104.478,0h8.833l2.839,8.1L123.843,0h8.833Z" transform="translate(-73.136)" fill="#fff"/>
    <path id="Path_786" data-name="Path 786" d="M202.4,20.748H189.8l-2.7,8.924H179.64l6.3-20.791h7.453l-1.35,4.462h8.88l1.8-5.936h-16.33L188.625,0h20.056a2.494,2.494,0,0,1,2,1.288,2.741,2.741,0,0,1,.564,2.391l-4.054,13.385a5.122,5.122,0,0,1-1.918,2.529A4.771,4.771,0,0,1,202.4,20.748Z" transform="translate(-126.604)" fill="#fff"/>
    <path id="Path_787" data-name="Path 787" d="M269.971,29.671l-3.093-8.924H263.06l-2.7,8.924H252.95l6.3-20.791h7.406l-1.35,4.462h8.924l1.8-5.936h-16.33L261.939,0H282a2.494,2.494,0,0,1,2,1.288,2.741,2.741,0,0,1,.564,2.391l-4.054,13.385a5.122,5.122,0,0,1-1.918,2.529,4.782,4.782,0,0,1-2.879,1.15l3.046,8.924h-8.785Z" transform="translate(-173.235)" fill="#fff"/>
    <path id="Path_788" data-name="Path 788" d="M346.808,29.671H328.04L337.025,0h18.768l2.726,7.406H342.233l-4.5,14.859h16.286Zm-1.044-11.133h-5.43l2.242-7.406h10.4Z" transform="translate(-220.997)" fill="#fff"/>
    <path id="Path_789" data-name="Path 789" d="M422.7,29.671H406.146l-2.726-7.406h15.271L410.142,8.88H420.31q2.959,4.509,5.932,8.971,2.418,4.323,1.943,5.888l-.67,2.209a5.177,5.177,0,0,1-1.9,2.62A4.788,4.788,0,0,1,422.7,29.671ZM409.388,7.406l1.128-3.727a5.112,5.112,0,0,1,1.867-2.6A4.806,4.806,0,0,1,415.357,0H430.4l2.726,7.406Z" transform="translate(-268.944 0)" fill="#fff"/>
    <path id="Path_790" data-name="Path 790" d="M496.775,29.671H480.216l-2.726-7.406H492.76L484.212,8.88h10.165q2.959,4.509,5.932,8.971,2.418,4.323,1.943,5.888l-.67,2.209a5.164,5.164,0,0,1-1.9,2.62A4.753,4.753,0,0,1,496.775,29.671ZM483.458,7.406l1.128-3.727a5.112,5.112,0,0,1,1.867-2.6A4.806,4.806,0,0,1,489.427,0h15.041l2.726,7.406Z" transform="translate(-316.058 0)" fill="#fff"/>
  </g>
  <g id="Group_567" data-name="Group 567" transform="translate(0 39.89)">
    <path id="Path_791" data-name="Path 791" d="M28.2,140.333l5.739-18.953q-2.746,3.286-4.469,5.335-5.983,7-9.666,7-3.636,0-5.393-6.955-.666-2.664-1.266-5.383L7.4,140.333H0l7.486-24.718a8.465,8.465,0,0,1,2.984-4.24,7.387,7.387,0,0,1,4.629-1.761q4.094,0,6.223,8,.721,3.1,1.485,6.19,2.233-2.664,4.513-5.335a52,52,0,0,1,5.819-6q3.439-2.86,5.972-2.857a3.983,3.983,0,0,1,3.559,1.761,4.822,4.822,0,0,1,.419,4.24L35.6,140.329H28.2Z" transform="translate(0 -109.61)" fill="#fff"/>
    <path id="Path_792" data-name="Path 792" d="M124.7,140.346H105.93l9.3-30.716H134l2.646,7.668H120.36L115.7,132.681h16.286Zm-.928-11.526h-5.43l2.322-7.668h10.4Z" transform="translate(-67.379 -109.623)" fill="#fff"/>
    <path id="Path_793" data-name="Path 793" d="M196.251,140.339l-3-9.24h-3.818l-2.8,9.24H179.23l6.518-21.526h7.406l-1.4,4.618h8.924l1.86-6.143H186.21l2.322-7.668h20.056a2.456,2.456,0,0,1,1.987,1.332,2.891,2.891,0,0,1,.539,2.475l-4.2,13.858a5.387,5.387,0,0,1-1.943,2.62,4.743,4.743,0,0,1-2.89,1.19l2.951,9.24h-8.785Z" transform="translate(-114.003 -109.616)" fill="#fff"/>
    <path id="Path_794" data-name="Path 794" d="M274.812,140.339H259.77A2.546,2.546,0,0,1,257.5,139.2a3.069,3.069,0,0,1-.28-2.715l5.35-17.669h7.453l-4.2,13.858h16.286Zm-11.788-23.051,1.168-3.858a5.384,5.384,0,0,1,1.911-2.668,4.746,4.746,0,0,1,2.97-1.143h15.041l2.646,7.668Z" transform="translate(-163.489 -109.616)" fill="#fff"/>
    <path id="Path_795" data-name="Path 795" d="M323.58,140.339l9.3-30.716h7.453l-9.3,30.716Zm16.333,0,3.49-11.526H336l2.322-7.668h7.406l3.49-11.526h7.406l-9.3,30.716h-7.406Z" transform="translate(-205.819 -109.616)" fill="#fff"/>
    <path id="Path_796" data-name="Path 796" d="M402.944,140.346l1.4-4.618h-8.971l-4.3,4.618H382.24l25.872-27.859a7.827,7.827,0,0,1,5.786-2.857,3.958,3.958,0,0,1,3.53,1.787,4.775,4.775,0,0,1,.448,4.214l-3.3,10.907h-7.453l1.558-5.142-6.252,6.667h11.686l-3.723,12.286h-7.442Z" transform="translate(-243.131 -109.623)" fill="#fff"/>
    <path id="Path_797" data-name="Path 797" d="M490.094,140.339a3.869,3.869,0,0,1-4.058-2.857l-5.2-16.1L475.1,140.339H467.69l7.486-24.718a8.465,8.465,0,0,1,2.984-4.24,7.387,7.387,0,0,1,4.629-1.761,3.8,3.8,0,0,1,4.011,2.857l5.2,16.1,5.739-18.954h7.453l-7.486,24.718a8.465,8.465,0,0,1-2.984,4.24A7.4,7.4,0,0,1,490.094,140.339Z" transform="translate(-297.483 -109.616)" fill="#fff"/>
    <path id="Path_798" data-name="Path 798" d="M572.876,140.339l6.98-23.048H572.45l2.322-7.668h14.812l-9.3,30.716Zm21.286-23.051h-5.43l2.322-7.668h10.4Z" transform="translate(-364.118 -109.616)" fill="#fff"/>
    <path id="Path_799" data-name="Path 799" d="M649.4,140.339H632.836l-2.646-7.668h15.271l-8.407-13.858h10.172q2.91,4.667,5.834,9.288,2.369,4.476,1.882,6.1l-.692,2.285a5.44,5.44,0,0,1-1.925,2.715A4.732,4.732,0,0,1,649.4,140.339Zm-13.076-23.051,1.168-3.858a5.367,5.367,0,0,1,1.9-2.689,4.752,4.752,0,0,1,2.984-1.121h15.045l2.646,7.668Z" transform="translate(-400.845 -109.616)" fill="#fff"/>
  </g>
</svg>
