<svg xmlns="http://www.w3.org/2000/svg" width="84.139" height="148.995" viewBox="0 0 84.139 148.995">
  <g id="Group_311" data-name="Group 311" transform="translate(-971.67 -0.432)">
    <rect id="Rectangle_1572" data-name="Rectangle 1572" width="84.14" height="148.995" rx="4" transform="translate(971.67 0.432)" fill="#fff"/>
    <g id="Group_310" data-name="Group 310" transform="translate(980.696 104.235)">
      <path id="Path_1" data-name="Path 1" d="M-1.232,0-9.56,27.494H7.832l6.682-6.863H-.576L3.594,6.863H18.685L16.16,0ZM3.913,10.315,1.835,17.179h5.03l6.683-6.863Z" transform="translate(9.56 0.95)" fill="#2b88f1"/>
      <path id="Path_8" data-name="Path 8" d="M-3.867-4.213l5.32-17.564q-2.543,3.044-4.14,4.943-5.545,6.487-8.956,6.487-3.367,0-5-6.443-.617-2.471-1.175-4.986l-5.32,17.564H-30l6.937-22.9a7.845,7.845,0,0,1,2.767-3.927,6.853,6.853,0,0,1,4.288-1.633q3.794,0,5.768,7.414.666,2.869,1.375,5.737Q-6.795-22-4.681-24.469a48.3,48.3,0,0,1,5.393-5.56Q3.9-32.677,6.246-32.677a3.687,3.687,0,0,1,3.3,1.633,4.462,4.462,0,0,1,.388,3.927L3-4.213Z" transform="translate(54.651 32.677)" fill="#2b88f1"/>
    </g>
    <path id="Path_785" data-name="Path 785" d="M6.012,0H1.078V-8.566H6.012v1.488H2.895V-5.2h2.9v1.488h-2.9V-1.5H6.012ZM8.64-3.346,6.531-6.551H8.558L9.829-4.465l1.283-2.086H13.14L11.007-3.346,13.24,0H11.206L9.829-2.244,8.447,0H6.419ZM17.473.117a2.173,2.173,0,0,1-1.811-.838h-.094q.094.82.094.949V2.883H13.876V-6.551h1.453l.252.85h.082a2.067,2.067,0,0,1,1.857-.973,2.126,2.126,0,0,1,1.816.9,4.146,4.146,0,0,1,.656,2.49,4.917,4.917,0,0,1-.308,1.822,2.556,2.556,0,0,1-.876,1.178A2.245,2.245,0,0,1,17.473.117Zm-.527-5.361a1.128,1.128,0,0,0-.967.407,2.338,2.338,0,0,0-.316,1.345V-3.3a2.76,2.76,0,0,0,.313,1.512,1.119,1.119,0,0,0,.993.457q1.2,0,1.2-1.98a2.828,2.828,0,0,0-.3-1.45A1.01,1.01,0,0,0,16.946-5.244Zm7.82-1.43a2.882,2.882,0,0,1,.6.053l-.135,1.676A2.047,2.047,0,0,0,24.707-5a1.9,1.9,0,0,0-1.333.439,1.589,1.589,0,0,0-.478,1.23V0H21.109V-6.551h1.354l.264,1.1h.088a2.463,2.463,0,0,1,.823-.888A2.03,2.03,0,0,1,24.766-6.674ZM28.671-5.4a1.134,1.134,0,0,0-.891.36,1.668,1.668,0,0,0-.369,1.022h2.508a1.49,1.49,0,0,0-.346-1.022A1.17,1.17,0,0,0,28.671-5.4Zm.252,5.52a3.381,3.381,0,0,1-2.473-.873,3.306,3.306,0,0,1-.891-2.473,3.636,3.636,0,0,1,.823-2.546,2.931,2.931,0,0,1,2.276-.9,2.885,2.885,0,0,1,2.162.791A2.993,2.993,0,0,1,31.6-3.7v.867H27.371a1.72,1.72,0,0,0,.451,1.189,1.587,1.587,0,0,0,1.184.428,4.914,4.914,0,0,0,1.119-.123,5.6,5.6,0,0,0,1.1-.393V-.346a4.2,4.2,0,0,1-1,.349A6.317,6.317,0,0,1,28.923.117Zm8.335-2.062a1.8,1.8,0,0,1-.7,1.535,3.46,3.46,0,0,1-2.095.527,6.579,6.579,0,0,1-1.219-.1A4.61,4.61,0,0,1,32.3-.264V-1.74a6.23,6.23,0,0,0,1.122.393,4.543,4.543,0,0,0,1.1.158q.973,0,.973-.562a.469.469,0,0,0-.129-.343,1.869,1.869,0,0,0-.445-.3q-.316-.167-.844-.39a5.3,5.3,0,0,1-1.11-.586,1.649,1.649,0,0,1-.516-.618,2.041,2.041,0,0,1-.161-.858A1.556,1.556,0,0,1,32.967-6.2a3.3,3.3,0,0,1,1.919-.478,5.447,5.447,0,0,1,2.3.516l-.539,1.289q-.492-.211-.92-.346a2.889,2.889,0,0,0-.873-.135q-.791,0-.791.428a.5.5,0,0,0,.255.416,6.932,6.932,0,0,0,1.116.521,5.186,5.186,0,0,1,1.125.58,1.716,1.716,0,0,1,.527.621A1.909,1.909,0,0,1,37.259-1.945Zm5.6,0a1.8,1.8,0,0,1-.7,1.535,3.46,3.46,0,0,1-2.095.527,6.579,6.579,0,0,1-1.219-.1,4.61,4.61,0,0,1-.943-.284V-1.74a6.23,6.23,0,0,0,1.122.393,4.543,4.543,0,0,0,1.1.158q.973,0,.973-.562a.469.469,0,0,0-.129-.343,1.869,1.869,0,0,0-.445-.3q-.316-.167-.844-.39a5.3,5.3,0,0,1-1.11-.586,1.649,1.649,0,0,1-.516-.618,2.041,2.041,0,0,1-.161-.858A1.556,1.556,0,0,1,38.571-6.2a3.3,3.3,0,0,1,1.919-.478,5.447,5.447,0,0,1,2.3.516l-.539,1.289q-.492-.211-.92-.346a2.889,2.889,0,0,0-.873-.135q-.791,0-.791.428a.5.5,0,0,0,.255.416,6.932,6.932,0,0,0,1.116.521,5.186,5.186,0,0,1,1.125.58,1.716,1.716,0,0,1,.527.621A1.909,1.909,0,0,1,42.863-1.945ZM4.969,13,2.063,5.406H2.016q.082.9.082,2.145V13h-.92V4.434h1.5L5.391,11.5h.047L8.174,4.434H9.662V13h-1V7.48q0-.949.082-2.062H8.7L5.771,13Zm9.249.117a2.95,2.95,0,0,1-2.247-.867,3.357,3.357,0,0,1-.823-2.408,3.723,3.723,0,0,1,.765-2.467,2.54,2.54,0,0,1,2.054-.914,2.422,2.422,0,0,1,1.91.794,3.043,3.043,0,0,1,.7,2.095v.615H12.156a2.546,2.546,0,0,0,.571,1.717,1.976,1.976,0,0,0,1.526.586,5.172,5.172,0,0,0,2.051-.434V12.7a5.147,5.147,0,0,1-.976.319A5.483,5.483,0,0,1,14.218,13.117Zm-.264-5.842a1.588,1.588,0,0,0-1.233.5,2.323,2.323,0,0,0-.542,1.395h3.357a2.139,2.139,0,0,0-.41-1.409A1.444,1.444,0,0,0,13.954,7.275Zm6.853-.814a3.806,3.806,0,0,1,.768.07l-.135.9a3.313,3.313,0,0,0-.7-.088,1.712,1.712,0,0,0-1.333.633,2.307,2.307,0,0,0-.554,1.576V13h-.973V6.578h.8l.111,1.189h.047A2.823,2.823,0,0,1,19.7,6.8,1.939,1.939,0,0,1,20.807,6.461Zm3.935,6.656a2.741,2.741,0,0,1-2.159-.858,3.53,3.53,0,0,1-.765-2.429,3.64,3.64,0,0,1,.776-2.49,2.8,2.8,0,0,1,2.212-.879,4.389,4.389,0,0,1,.926.1,3.05,3.05,0,0,1,.727.234l-.3.826a4.573,4.573,0,0,0-.7-.214,3.139,3.139,0,0,0-.674-.085q-1.957,0-1.957,2.5a2.972,2.972,0,0,0,.478,1.816,1.661,1.661,0,0,0,1.415.633,4.326,4.326,0,0,0,1.646-.346v.861A3.509,3.509,0,0,1,24.742,13.117ZM31.923,13V8.846a1.676,1.676,0,0,0-.357-1.172,1.456,1.456,0,0,0-1.119-.387,1.834,1.834,0,0,0-1.479.551,2.79,2.79,0,0,0-.466,1.8V13h-.973V3.883H28.5v2.76a6.013,6.013,0,0,1-.047.826h.059a1.984,1.984,0,0,1,.817-.729,2.657,2.657,0,0,1,1.21-.267,2.478,2.478,0,0,1,1.767.56A2.357,2.357,0,0,1,32.9,8.811V13Zm6.56,0-.193-.914h-.047a2.7,2.7,0,0,1-.958.817,2.92,2.92,0,0,1-1.192.214,2.145,2.145,0,0,1-1.5-.492,1.8,1.8,0,0,1-.542-1.4q0-1.945,3.111-2.039l1.09-.035v-.4a1.628,1.628,0,0,0-.325-1.116,1.337,1.337,0,0,0-1.04-.36,4.238,4.238,0,0,0-1.816.492l-.3-.744a4.571,4.571,0,0,1,1.04-.4,4.5,4.5,0,0,1,1.134-.146,2.446,2.446,0,0,1,1.7.51A2.128,2.128,0,0,1,39.2,8.617V13Zm-2.2-.686a1.974,1.974,0,0,0,1.427-.5,1.842,1.842,0,0,0,.519-1.395v-.58l-.973.041a3.538,3.538,0,0,0-1.673.36,1.087,1.087,0,0,0-.513.993,1,1,0,0,0,.319.8A1.326,1.326,0,0,0,36.286,12.314ZM45.242,13V8.846a1.676,1.676,0,0,0-.357-1.172,1.456,1.456,0,0,0-1.119-.387,1.846,1.846,0,0,0-1.477.545,2.751,2.751,0,0,0-.469,1.8V13h-.973V6.578h.791l.158.879h.047a1.986,1.986,0,0,1,.838-.735,2.722,2.722,0,0,1,1.2-.261,2.439,2.439,0,0,1,1.746.56,2.381,2.381,0,0,1,.586,1.79V13Zm4.685-.686a3.177,3.177,0,0,0,.5-.038,3.224,3.224,0,0,0,.381-.079v.744a1.778,1.778,0,0,1-.466.126,3.5,3.5,0,0,1-.554.05q-1.863,0-1.863-1.963V7.334H47V6.865l.92-.4.41-1.371H48.9V6.578h1.863v.756H48.9v3.779a1.3,1.3,0,0,0,.275.891A.958.958,0,0,0,49.927,12.314Zm5.945-1.066a1.609,1.609,0,0,1-.668,1.383,3.14,3.14,0,0,1-1.875.486,4.077,4.077,0,0,1-1.992-.4v-.9a4.818,4.818,0,0,0,.993.369,4.147,4.147,0,0,0,1.022.135,2.319,2.319,0,0,0,1.172-.243.837.837,0,0,0,.085-1.383,5.115,5.115,0,0,0-1.269-.63,6.879,6.879,0,0,1-1.274-.583A1.741,1.741,0,0,1,51.5,8.91a1.475,1.475,0,0,1-.185-.756,1.441,1.441,0,0,1,.639-1.239,2.976,2.976,0,0,1,1.752-.454,5.126,5.126,0,0,1,2.027.422l-.346.791a4.654,4.654,0,0,0-1.752-.4,2.016,2.016,0,0,0-1.043.217.67.67,0,0,0-.352.6.728.728,0,0,0,.132.439,1.3,1.3,0,0,0,.425.346,9.493,9.493,0,0,0,1.125.475,4.2,4.2,0,0,1,1.544.838A1.478,1.478,0,0,1,55.872,11.248Z" transform="translate(980.696 72.006)" fill="#2b88f1" opacity="0.999"/>
    <line id="Line_28" data-name="Line 28" x2="64.031" transform="translate(981.312 95.331)" fill="none" stroke="#2b88f1" stroke-width="1"/>
  </g>
</svg>
