<svg xmlns="http://www.w3.org/2000/svg" width="32.669" height="94.131" viewBox="0 0 32.669 94.131">
  <path id="Path_782" data-name="Path 782" d="M26.7-86.44a7.4,7.4,0,0,1-2.276,5.414,7.4,7.4,0,0,1-5.414,2.276,7.2,7.2,0,0,1-5.353-2.276,7.5,7.5,0,0,1-2.215-5.414,7.5,7.5,0,0,1,2.215-5.414,7.2,7.2,0,0,1,5.353-2.276,7.438,7.438,0,0,1,5.476,2.215A7.438,7.438,0,0,1,26.7-86.44Zm9.105,75.12V0H3.138V-11.32h10.09V-53.279H3.138V-64.661H25.963V-11.32Z" transform="translate(-3.138 94.131)" fill="#58a1f4"/>
</svg>
