<svg xmlns="http://www.w3.org/2000/svg" width="49.551" height="71.11" viewBox="0 0 49.551 71.11">
  <path id="Subtraction_22" data-name="Subtraction 22" d="M24.805,71.11v-.053A85.438,85.438,0,0,1,12.275,57.743,68.489,68.489,0,0,1,4.152,44.226a44.372,44.372,0,0,1-4-16.421A25.851,25.851,0,0,1,0,25.049,25.244,25.244,0,0,1,1.937,15.3,24.992,24.992,0,0,1,7.219,7.337a24.545,24.545,0,0,1,7.834-5.368A24.342,24.342,0,0,1,38.464,4.3a24.967,24.967,0,0,1,8.927,11.083,27.06,27.06,0,0,1,2.16,11.135,43.243,43.243,0,0,1-3.663,16.864,67.211,67.211,0,0,1-8.162,13.925A85.411,85.411,0,0,1,24.87,71.058v.05l-.031-.024-.032.025ZM24.852,50.1l0,4.017.012-4.017Zm.2-38.785a8.888,8.888,0,1,0,6.286,2.6A8.83,8.83,0,0,0,25.049,11.313Z" fill="#58a1f4"/>
</svg>
