<svg xmlns="http://www.w3.org/2000/svg" width="15.945" height="22.883" viewBox="0 0 15.945 22.883">
  <path id="Subtraction_11" data-name="Subtraction 11" d="M7.982,22.883h0v-.016A27.494,27.494,0,0,1,3.95,18.582a22.04,22.04,0,0,1-2.614-4.35A14.279,14.279,0,0,1,.048,8.947,8.319,8.319,0,0,1,0,8.061,8.124,8.124,0,0,1,.623,4.923a8.042,8.042,0,0,1,1.7-2.562A7.9,7.9,0,0,1,4.844.633a7.833,7.833,0,0,1,7.534.752A8.034,8.034,0,0,1,15.25,4.952a8.708,8.708,0,0,1,.7,3.583,13.916,13.916,0,0,1-1.179,5.427,21.629,21.629,0,0,1-2.627,4.481A27.485,27.485,0,0,1,8,22.866v.016l-.01-.008-.01.008ZM8,16.121v1.293l0-1.293ZM8.061,3.64a2.86,2.86,0,1,0,2.023.838A2.842,2.842,0,0,0,8.061,3.64Z" fill="#fff"/>
</svg>
