<svg xmlns="http://www.w3.org/2000/svg" width="17.702" height="17.695" viewBox="0 0 17.702 17.695">
  <g id="_9243" data-name="9243" transform="translate(3.318) rotate(13)">
    <g id="Group_559" data-name="Group 559" transform="translate(0 0)">
      <path id="Path_780" data-name="Path 780" d="M14.755,11.83a.714.714,0,0,1-.219.625l-2.078,2.063a1.17,1.17,0,0,1-.367.266,1.517,1.517,0,0,1-.445.141l-.094.008q-.078.008-.2.008a7.2,7.2,0,0,1-.961-.1,7.3,7.3,0,0,1-1.625-.5,13.642,13.642,0,0,1-2.18-1.2,16.254,16.254,0,0,1-2.594-2.188A17.124,17.124,0,0,1,2.175,8.892,14.7,14.7,0,0,1,1.018,7.072,9.806,9.806,0,0,1,.362,5.556a8.042,8.042,0,0,1-.3-1.172A3.871,3.871,0,0,1,0,3.61Q.018,3.329.018,3.3a1.519,1.519,0,0,1,.141-.445,1.171,1.171,0,0,1,.266-.367L2.5.407A.688.688,0,0,1,3,.188a.583.583,0,0,1,.359.117,1.086,1.086,0,0,1,.266.289L5.3,3.767a.761.761,0,0,1,.078.547.974.974,0,0,1-.266.5l-.766.766a.261.261,0,0,0-.055.1.386.386,0,0,0-.023.117,2.822,2.822,0,0,0,.281.75,6.886,6.886,0,0,0,.578.914A10.151,10.151,0,0,0,6.238,8.7a10.351,10.351,0,0,0,1.25,1.117,7.22,7.22,0,0,0,.914.586,2.43,2.43,0,0,0,.563.227l.2.039a.373.373,0,0,0,.1-.023.261.261,0,0,0,.1-.055l.891-.906a.957.957,0,0,1,.656-.25.817.817,0,0,1,.422.094h.016l3.016,1.782A.786.786,0,0,1,14.755,11.83Z" transform="translate(0 -0.188)" fill="#fff"/>
    </g>
  </g>
</svg>
