<svg xmlns="http://www.w3.org/2000/svg" width="56" height="75.423" viewBox="0 0 56 75.423">
  <g id="Group_566" data-name="Group 566" transform="translate(-1296.566 -252.788)">
    <rect id="Rectangle_1803" data-name="Rectangle 1803" width="56" height="75.423" rx="4" transform="translate(1296.566 252.788)" fill="#ff4848"/>
    <path id="Path_784" data-name="Path 784" d="M-15.87-3.573h.439a1.681,1.681,0,0,0,.954-.215.769.769,0,0,0,.308-.677.7.7,0,0,0-.314-.65,1.907,1.907,0,0,0-.973-.193h-.413Zm0,1.107V0h-1.362V-6.425h1.872a3.2,3.2,0,0,1,1.938.477A1.7,1.7,0,0,1-12.794-4.5a1.7,1.7,0,0,1-.312,1.009,2.064,2.064,0,0,1-.883.692Q-12.539-.633-12.1,0h-1.512l-1.534-2.465ZM-7.861,0h-3.7V-6.425h3.7v1.116H-10.2V-3.9h2.175v1.116H-10.2v1.657h2.338Zm3.791,0L-5.617-5.041h-.04q.083,1.538.083,2.052V0H-6.791V-6.425h1.854l1.521,4.913h.026l1.613-4.913H.078V0h-1.27V-3.041q0-.215.007-.5t.059-1.494h-.04L-2.823,0ZM7.257-3.221A3.486,3.486,0,0,1,6.466-.769,2.932,2.932,0,0,1,4.2.088,2.932,2.932,0,0,1,1.93-.769,3.5,3.5,0,0,1,1.139-3.23a3.452,3.452,0,0,1,.793-2.45,2.966,2.966,0,0,1,2.274-.846,2.925,2.925,0,0,1,2.265.853A3.5,3.5,0,0,1,7.257-3.221Zm-4.689,0A2.684,2.684,0,0,0,2.976-1.6,1.43,1.43,0,0,0,4.2-1.055q1.63,0,1.63-2.167T4.207-5.392a1.44,1.44,0,0,0-1.226.547A2.672,2.672,0,0,0,2.568-3.221Zm9.328-3.2h1.375L11.087,0H9.6L7.422-6.425H8.8L10.006-2.6q.1.338.209.789t.134.626a11.256,11.256,0,0,1,.33-1.415ZM17.51,0h-3.7V-6.425h3.7v1.116H15.172V-3.9h2.175v1.116H15.172v1.657H17.51ZM-4.928,1.575V5.732A2.4,2.4,0,0,1-5.246,6.98a2.074,2.074,0,0,1-.921.822,3.292,3.292,0,0,1-1.424.286,2.726,2.726,0,0,1-1.925-.635A2.253,2.253,0,0,1-10.2,5.715V1.575h1.358V5.508a1.647,1.647,0,0,0,.3,1.09,1.242,1.242,0,0,0,.989.347A1.215,1.215,0,0,0-6.587,6.6a1.656,1.656,0,0,0,.3-1.1V1.575Zm5.1,4.641A1.661,1.661,0,0,1-.458,7.587a2.72,2.72,0,0,1-1.742.5A4.092,4.092,0,0,1-4.02,7.7V6.436a7.5,7.5,0,0,0,1.1.409,3.257,3.257,0,0,0,.824.119,1.172,1.172,0,0,0,.688-.171.586.586,0,0,0,.24-.51.563.563,0,0,0-.105-.336,1.18,1.18,0,0,0-.31-.283,7.968,7.968,0,0,0-.833-.435A3.947,3.947,0,0,1-3.3,4.7,2,2,0,0,1-3.77,4.1a1.693,1.693,0,0,1-.176-.791,1.66,1.66,0,0,1,.578-1.34,2.4,2.4,0,0,1,1.6-.488A3.772,3.772,0,0,1-.814,1.6a6.57,6.57,0,0,1,.951.334L-.3,2.995a6.43,6.43,0,0,0-.85-.294,2.737,2.737,0,0,0-.661-.083.876.876,0,0,0-.593.18.594.594,0,0,0-.207.47.582.582,0,0,0,.083.314.918.918,0,0,0,.266.259,8.221,8.221,0,0,0,.864.45,3.436,3.436,0,0,1,1.235.864A1.685,1.685,0,0,1,.168,6.216ZM4.763,8h-3.7V1.575h3.7V2.691H2.425V4.1H4.6V5.218H2.425V6.875H4.763ZM7.2,4.427h.439a1.681,1.681,0,0,0,.954-.215A.769.769,0,0,0,8.9,3.535a.7.7,0,0,0-.314-.65,1.907,1.907,0,0,0-.973-.193H7.2Zm0,1.107V8H5.833V1.575H7.705a3.2,3.2,0,0,1,1.938.477A1.7,1.7,0,0,1,10.272,3.5,1.7,1.7,0,0,1,9.96,4.509a2.064,2.064,0,0,1-.883.692q1.45,2.167,1.89,2.8H9.454L7.92,5.535Z" transform="translate(1324.566 309)" fill="#a71f47"/>
    <path id="Path_785" data-name="Path 785" d="M9.338,0H4.5L-.15-7.561-4.8,0H-9.338l6.631-10.309-6.207-9.68h4.676L.068-12.8l4.225-7.191H8.859L2.584-10.076Z" transform="translate(1325 293)" fill="#a71f47"/>
  </g>
</svg>
