<svg xmlns="http://www.w3.org/2000/svg" width="56" height="75.423" viewBox="0 0 56 75.423">
  <g id="Group_565" data-name="Group 565" transform="translate(-1296.566 -252.788)">
    <rect id="Rectangle_1803" data-name="Rectangle 1803" width="56" height="75.423" rx="4" transform="translate(1296.566 252.788)" fill="#ff4848"/>
    <path id="Path_783" data-name="Path 783" d="M-15.87-3.573h.439a1.681,1.681,0,0,0,.954-.215.769.769,0,0,0,.308-.677.7.7,0,0,0-.314-.65,1.907,1.907,0,0,0-.973-.193h-.413Zm0,1.107V0h-1.362V-6.425h1.872a3.2,3.2,0,0,1,1.938.477A1.7,1.7,0,0,1-12.794-4.5a1.7,1.7,0,0,1-.312,1.009,2.064,2.064,0,0,1-.883.692Q-12.539-.633-12.1,0h-1.512l-1.534-2.465ZM-7.861,0h-3.7V-6.425h3.7v1.116H-10.2V-3.9h2.175v1.116H-10.2v1.657h2.338Zm3.791,0L-5.617-5.041h-.04q.083,1.538.083,2.052V0H-6.791V-6.425h1.854l1.521,4.913h.026l1.613-4.913H.078V0h-1.27V-3.041q0-.215.007-.5t.059-1.494h-.04L-2.823,0ZM7.257-3.221A3.486,3.486,0,0,1,6.466-.769,2.932,2.932,0,0,1,4.2.088,2.932,2.932,0,0,1,1.93-.769,3.5,3.5,0,0,1,1.139-3.23a3.452,3.452,0,0,1,.793-2.45,2.966,2.966,0,0,1,2.274-.846,2.925,2.925,0,0,1,2.265.853A3.5,3.5,0,0,1,7.257-3.221Zm-4.689,0A2.684,2.684,0,0,0,2.976-1.6,1.43,1.43,0,0,0,4.2-1.055q1.63,0,1.63-2.167T4.207-5.392a1.44,1.44,0,0,0-1.226.547A2.672,2.672,0,0,0,2.568-3.221Zm9.328-3.2h1.375L11.087,0H9.6L7.422-6.425H8.8L10.006-2.6q.1.338.209.789t.134.626a11.256,11.256,0,0,1,.33-1.415ZM17.51,0h-3.7V-6.425h3.7v1.116H15.172V-3.9h2.175v1.116H15.172v1.657H17.51Z" transform="translate(1324.566 309)" fill="#a71f47"/>
    <path id="Path_782" data-name="Path 782" d="M9.338,0H4.5L-.15-7.561-4.8,0H-9.338l6.631-10.309-6.207-9.68h4.676L.068-12.8l4.225-7.191H8.859L2.584-10.076Z" transform="translate(1325 293)" fill="#a71f47"/>
  </g>
</svg>
