<svg xmlns="http://www.w3.org/2000/svg" width="16.002" height="22.964" viewBox="0 0 16.002 22.964">
  <path id="Subtraction_42" data-name="Subtraction 42" d="M8.011,22.964h0v-.016a27.591,27.591,0,0,1-4.047-4.3,22.118,22.118,0,0,1-2.623-4.365,14.329,14.329,0,0,1-1.293-5.3A8.348,8.348,0,0,1,0,8.089,8.152,8.152,0,0,1,.625,4.94,8.071,8.071,0,0,1,2.331,2.369,7.927,7.927,0,0,1,4.861.636a7.861,7.861,0,0,1,7.56.755A8.063,8.063,0,0,1,15.3,4.969a8.738,8.738,0,0,1,.7,3.6,13.965,13.965,0,0,1-1.183,5.446,21.7,21.7,0,0,1-2.636,4.5,27.582,27.582,0,0,1-4.152,4.439v.016l-.01-.008-.01.008Zm.015-6.786v1.3l0-1.3ZM8.089,3.653a2.87,2.87,0,1,0,2.03.841A2.852,2.852,0,0,0,8.089,3.653Z" fill="#0d2134"/>
</svg>
