<svg xmlns="http://www.w3.org/2000/svg" width="56" height="75.423" viewBox="0 0 56 75.423">
  <g id="Group_566" data-name="Group 566" transform="translate(-1295.566 -502.788)">
    <rect id="Rectangle_1803" data-name="Rectangle 1803" width="56" height="75.423" rx="4" transform="translate(1295.566 502.788)" fill="#0d2134"/>
    <g id="Group_429" data-name="Group 429" transform="translate(1307.876 515.077)" opacity="0.9">
      <g id="Rectangle_1510" data-name="Rectangle 1510" fill="none" stroke="#fff" stroke-width="3">
        <rect width="31.802" height="29.119" rx="4" stroke="none"/>
        <rect x="1.5" y="1.5" width="28.802" height="26.119" rx="2.5" fill="none"/>
      </g>
      <g id="Rectangle_1511" data-name="Rectangle 1511" transform="translate(21.27 4.45)" fill="#fff" stroke="#fff" stroke-width="1">
        <rect width="5.815" height="3.717" stroke="none"/>
        <rect x="0.5" y="0.5" width="4.815" height="2.717" fill="none"/>
      </g>
      <g id="Ellipse_239" data-name="Ellipse 239" transform="translate(8.259 7.786)" fill="none" stroke="#fff" stroke-width="2">
        <circle cx="7.435" cy="7.435" r="7.435" stroke="none"/>
        <circle cx="7.435" cy="7.435" r="6.435" fill="none"/>
      </g>
    </g>
    <path id="Path_784" data-name="Path 784" d="M-7.3-3.4h.448a1.493,1.493,0,0,0,.94-.248A.869.869,0,0,0-5.6-4.373a.891.891,0,0,0-.261-.708,1.225,1.225,0,0,0-.82-.229H-7.3Zm3.076-1.02a1.964,1.964,0,0,1-.648,1.586,2.772,2.772,0,0,1-1.844.549H-7.3V0H-8.66V-6.425h2.052a2.73,2.73,0,0,1,1.778.5A1.835,1.835,0,0,1-4.221-4.421Zm6.774,1.2A3.486,3.486,0,0,1,1.762-.769,2.932,2.932,0,0,1-.505.088,2.932,2.932,0,0,1-2.773-.769,3.5,3.5,0,0,1-3.564-3.23a3.452,3.452,0,0,1,.793-2.45A2.966,2.966,0,0,1-.5-6.526a2.925,2.925,0,0,1,2.265.853A3.5,3.5,0,0,1,2.553-3.221Zm-4.689,0A2.684,2.684,0,0,0-1.727-1.6a1.43,1.43,0,0,0,1.222.545q1.63,0,1.63-2.167T-.5-5.392a1.44,1.44,0,0,0-1.226.547A2.672,2.672,0,0,0-2.136-3.221ZM8.945-3.274a3.164,3.164,0,0,1-.9,2.43A3.683,3.683,0,0,1,5.434,0H3.615V-6.425H5.632a3.4,3.4,0,0,1,2.443.831A3.055,3.055,0,0,1,8.945-3.274ZM7.53-3.239q0-2.07-1.828-2.07H4.977v4.184h.584Q7.53-1.125,7.53-3.239Zm-25,4.814V5.732a2.4,2.4,0,0,1-.319,1.248,2.074,2.074,0,0,1-.921.822,3.292,3.292,0,0,1-1.424.286,2.726,2.726,0,0,1-1.925-.635,2.253,2.253,0,0,1-.686-1.738V1.575h1.358V5.508a1.647,1.647,0,0,0,.3,1.09,1.242,1.242,0,0,0,.989.347,1.215,1.215,0,0,0,.969-.349,1.656,1.656,0,0,0,.3-1.1V1.575ZM-14.809,4.6h.448a1.493,1.493,0,0,0,.94-.248.869.869,0,0,0,.312-.723.891.891,0,0,0-.261-.708,1.225,1.225,0,0,0-.82-.229h-.62Zm3.076-1.02a1.964,1.964,0,0,1-.648,1.586,2.772,2.772,0,0,1-1.844.549h-.584V8h-1.362V1.575h2.052a2.73,2.73,0,0,1,1.778.5A1.835,1.835,0,0,1-11.733,3.579ZM-10.79,8V1.575h1.362v5.3h2.606V8ZM-.324,4.779a3.486,3.486,0,0,1-.791,2.452,2.932,2.932,0,0,1-2.268.857A2.932,2.932,0,0,1-5.65,7.231,3.5,3.5,0,0,1-6.441,4.77a3.452,3.452,0,0,1,.793-2.45,2.966,2.966,0,0,1,2.274-.846,2.925,2.925,0,0,1,2.265.853A3.5,3.5,0,0,1-.324,4.779Zm-4.689,0A2.684,2.684,0,0,0-4.6,6.4a1.43,1.43,0,0,0,1.222.545q1.63,0,1.63-2.167T-3.374,2.608A1.44,1.44,0,0,0-4.6,3.155,2.672,2.672,0,0,0-5.013,4.779ZM4.49,8,4.024,6.471H1.682L1.216,8H-.251L2.016,1.549H3.682L5.958,8ZM3.7,5.328Q3.053,3.25,2.972,2.977t-.116-.431q-.145.563-.831,2.782Zm8.128-.6a3.164,3.164,0,0,1-.9,2.43A3.683,3.683,0,0,1,8.316,8H6.5V1.575H8.514a3.4,3.4,0,0,1,2.443.831A3.055,3.055,0,0,1,11.827,4.726Zm-1.415.035q0-2.07-1.828-2.07H7.859V6.875h.584Q10.412,6.875,10.412,4.761ZM16.589,8h-3.7V1.575h3.7V2.691H14.251V4.1h2.175V5.218H14.251V6.875h2.338Zm6.4-3.274a3.164,3.164,0,0,1-.9,2.43A3.683,3.683,0,0,1,19.479,8H17.659V1.575h2.017a3.4,3.4,0,0,1,2.443.831A3.055,3.055,0,0,1,22.99,4.726Zm-1.415.035q0-2.07-1.828-2.07h-.725V6.875h.584Q21.575,6.875,21.575,4.761Z" transform="translate(1323.566 559)" fill="#fff" opacity="0.9"/>
  </g>
</svg>
