<svg xmlns="http://www.w3.org/2000/svg" width="69.839" height="69.839" viewBox="0 0 69.839 69.839">
  <g id="Video" transform="translate(-232 -454)">
    <rect id="Rectangle_312" data-name="Rectangle 312" width="69.839" height="69.839" transform="translate(232 454)" fill="none"/>
    <path id="Path_123" data-name="Path 123" d="M69.839,1.746V42.485a1.252,1.252,0,0,1-1.164,1.164h-.582c-.582,0-.582,0-1.164-.582l-14.55-14.55V39.575c0,1.164-.582,1.746-1.164,2.91-1.164.582-1.746,1.164-3.492,1.164H4.656a4.446,4.446,0,0,1-2.91-1.164C.582,41.321,0,40.739,0,39.575V4.656a4.446,4.446,0,0,1,1.164-2.91C2.328.582,2.91,0,4.656,0H48.305a4.446,4.446,0,0,1,2.91,1.164,8.272,8.272,0,0,1,1.164,3.492V15.714L67.511.582C67.511,0,68.093,0,68.675,0,69.257.582,69.839.582,69.839,1.746Z" transform="translate(232 467.095)" fill="#58a1f4"/>
  </g>
</svg>
