<svg xmlns="http://www.w3.org/2000/svg" width="56" height="75.423" viewBox="0 0 56 75.423">
  <g id="Group_565" data-name="Group 565" transform="translate(-399.566 -252.788)">
    <rect id="Rectangle_1858" data-name="Rectangle 1858" width="56" height="75.423" rx="4" transform="translate(399.566 252.788)" fill="#2b88f1"/>
    <path id="Path_783" data-name="Path 783" d="M-15.225-6.425h1.375L-16.033,0h-1.485L-19.7-6.425h1.375L-17.114-2.6q.1.338.209.789t.134.626a11.256,11.256,0,0,1,.33-1.415ZM-13.311,0V-6.425h1.362V0ZM-6.9,0h-3.7V-6.425h3.7v1.116H-9.239V-3.9h2.175v1.116H-9.239v1.657H-6.9ZM.427,0H-1.124l-.87-3.375q-.048-.18-.165-.745t-.134-.758q-.026.237-.132.762t-.163.749L-3.453,0H-5L-6.639-6.425H-5.3l.822,3.507q.215.971.312,1.683.026-.25.121-.776t.178-.815l.936-3.6h1.288l.936,3.6q.062.242.154.738t.141.853q.044-.343.141-.855T-.1-2.918L.722-6.425h1.34ZM8.6,0,8.136-1.529H5.793L5.328,0H3.86L6.127-6.451H7.793L10.069,0ZM7.811-2.672Q7.165-4.75,7.083-5.023t-.116-.431q-.145.563-.831,2.782ZM10.608,0V-6.425H11.97v5.3h2.606V0Zm4.814,0V-6.425h1.362v5.3h2.606V0ZM-9.009,4.6h.448a1.493,1.493,0,0,0,.94-.248.869.869,0,0,0,.312-.723A.891.891,0,0,0-7.57,2.92a1.225,1.225,0,0,0-.82-.229h-.62Zm3.076-1.02a1.964,1.964,0,0,1-.648,1.586,2.772,2.772,0,0,1-1.844.549h-.584V8h-1.362V1.575h2.052a2.73,2.73,0,0,1,1.778.5A1.835,1.835,0,0,1-5.933,3.579Zm3.808-2L-4.52,8H-5.737l2.4-6.425Zm6.414,3.2A3.486,3.486,0,0,1,3.5,7.231a2.932,2.932,0,0,1-2.268.857,2.932,2.932,0,0,1-2.268-.857A3.5,3.5,0,0,1-1.828,4.77a3.452,3.452,0,0,1,.793-2.45,2.966,2.966,0,0,1,2.274-.846A2.925,2.925,0,0,1,3.5,2.327,3.5,3.5,0,0,1,4.289,4.779Zm-4.689,0A2.684,2.684,0,0,0,.009,6.4a1.43,1.43,0,0,0,1.222.545q1.63,0,1.63-2.167T1.239,2.608a1.44,1.44,0,0,0-1.226.547A2.672,2.672,0,0,0-.4,4.779Zm6.726-3.2.062.1a13.494,13.494,0,0,1-.773,2.1H4.652q.3-1.3.439-2.2Zm4.5,4.641A1.661,1.661,0,0,1,10.2,7.587a2.72,2.72,0,0,1-1.742.5A4.092,4.092,0,0,1,6.636,7.7V6.436a7.5,7.5,0,0,0,1.1.409,3.257,3.257,0,0,0,.824.119,1.172,1.172,0,0,0,.688-.171.586.586,0,0,0,.24-.51.563.563,0,0,0-.105-.336,1.18,1.18,0,0,0-.31-.283,7.968,7.968,0,0,0-.833-.435A3.947,3.947,0,0,1,7.357,4.7a2,2,0,0,1-.47-.593,1.693,1.693,0,0,1-.176-.791,1.66,1.66,0,0,1,.578-1.34,2.4,2.4,0,0,1,1.6-.488,3.772,3.772,0,0,1,.956.119,6.57,6.57,0,0,1,.951.334l-.439,1.059A6.43,6.43,0,0,0,9.5,2.7a2.737,2.737,0,0,0-.661-.083.876.876,0,0,0-.593.18.594.594,0,0,0-.207.47.582.582,0,0,0,.083.314.918.918,0,0,0,.266.259,8.221,8.221,0,0,0,.864.45,3.436,3.436,0,0,1,1.235.864A1.685,1.685,0,0,1,10.824,6.216Z" transform="translate(427.566 309)" fill="#76daff"/>
    <path id="Path_782" data-name="Path 782" d="M1.777-21.273l-.561,5.031,5.1-1.422.451,3.445-4.648.328L5.168-9.83l-3.1,1.654L-.068-12.455-1.941-8.2-5.168-9.83l3.021-4.061-4.621-.355.533-3.418,4.99,1.422L-1.8-21.273Z" transform="translate(428 293)" fill="#76daff"/>
  </g>
</svg>
