<svg id="AnalysisIcon_NewBrandAdjustment" xmlns="http://www.w3.org/2000/svg" xmlns:xlink="http://www.w3.org/1999/xlink" width="175.768" height="163.267" viewBox="0 0 175.768 163.267">
  <defs>
    <clipPath id="clip-path">
      <rect id="Rectangle_1681" data-name="Rectangle 1681" width="175.768" height="163.267" fill="#fff"/>
    </clipPath>
  </defs>
  <g id="Group_571" data-name="Group 571" transform="translate(0 0)" clip-path="url(#clip-path)">
    <path id="Path_1111" data-name="Path 1111" d="M73.177,162.946a81.644,81.644,0,0,1-15.224-3.063l2.659-8.776a72.461,72.461,0,0,0,13.509,2.718Zm18.609-.183-1.124-9.1a72.371,72.371,0,0,0,13.451-2.985l2.833,8.721a81.344,81.344,0,0,1-15.16,3.364M40.862,152.471a82.1,82.1,0,0,1-12.647-9.01l6-6.93a73.036,73.036,0,0,0,11.23,8ZM15.615,129.758A81.924,81.924,0,0,1,7.7,116.4l8.3-3.9a72.651,72.651,0,0,0,7.024,11.861ZM1.764,98.742A82.131,82.131,0,0,1,0,83.319l9.168-.178a72.967,72.967,0,0,0,1.567,13.7ZM161.921,97.16l-9.006-1.727a73.127,73.127,0,0,0,1.3-13.726v-.174h9.172v.174a82.289,82.289,0,0,1-1.461,15.453M10.713,66.678,1.738,64.787A81.371,81.371,0,0,1,6.382,49.961l8.448,3.567a72.143,72.143,0,0,0-4.117,13.15m141.592-1.557A72.037,72.037,0,0,0,147.9,52.066l8.366-3.752a81.272,81.272,0,0,1,4.969,14.719ZM22.958,39.13l-7.42-5.389A82.248,82.248,0,0,1,25.807,22.1l6.275,6.688A73.178,73.178,0,0,0,22.958,39.13m116.5-1.272a73.281,73.281,0,0,0-9.346-10.144l6.126-6.823a82.248,82.248,0,0,1,10.52,11.418ZM45.343,18.917l-4.6-7.931a81.651,81.651,0,0,1,14.114-6.48l3.012,8.663a72.278,72.278,0,0,0-12.524,5.748m71.295-.78a72.173,72.173,0,0,0-12.647-5.471l2.817-8.727A81.53,81.53,0,0,1,121.067,10.1ZM73.993,9.572,73.033.452A83.078,83.078,0,0,1,88.546.284l-.761,9.137a74.191,74.191,0,0,0-13.792.15" transform="translate(0 0)" fill="#001231"/>
    <rect id="Rectangle_1679" data-name="Rectangle 1679" width="13.585" height="21.228" transform="translate(83.961 78.711)" fill="#fff"/>
    <rect id="Rectangle_1680" data-name="Rectangle 1680" width="13.585" height="41.447" transform="translate(65.242 58.492)" fill="#fa3457"/>
    <path id="Path_1112" data-name="Path 1112" d="M62.081,34.265H52.626V67.35h7.529a33.782,33.782,0,0,0,1.926-33.085" transform="translate(50.052 32.589)" fill="#fa3457"/>
    <path id="Path_1113" data-name="Path 1113" d="M36.808,41.886H24.5A33.65,33.65,0,0,0,29.855,60.1h6.954Z" transform="translate(23.303 39.837)" fill="#001231"/>
    <path id="Path_1114" data-name="Path 1114" d="M159.423,145.177h0a14.212,14.212,0,0,0-1.846-20.112L118.406,92a55.136,55.136,0,1,0-17.263,20.968l37.98,33.7a14.209,14.209,0,0,0,20.3-1.495M68.667,108.59A39.922,39.922,0,1,1,108.6,68.677,39.923,39.923,0,0,1,68.667,108.59" transform="translate(13.014 13.023)" fill="#fff"/>
  </g>
</svg>
