<svg id="Checklist_icon_NewBrandAdjustment" xmlns="http://www.w3.org/2000/svg" xmlns:xlink="http://www.w3.org/1999/xlink" width="197.099" height="163.142" viewBox="0 0 197.099 163.142">
  <defs>
    <clipPath id="clip-path">
      <rect id="Rectangle_1687" data-name="Rectangle 1687" width="197.099" height="163.142" fill="#5172b8"/>
    </clipPath>
  </defs>
  <g id="Group_573" data-name="Group 573" transform="translate(0 0)" clip-path="url(#clip-path)">
    <path id="Path_1115" data-name="Path 1115" d="M52.125,59.467a8.935,8.935,0,0,1-5.776-2.125,1.061,1.061,0,0,1,1.374-1.618,6.792,6.792,0,0,0,8.8,0A1.061,1.061,0,1,1,57.9,57.342a8.935,8.935,0,0,1-5.776,2.125" transform="translate(43.228 52.158)" fill="#5172b8"/>
    <path id="Path_1116" data-name="Path 1116" d="M48.569,48.035a2.678,2.678,0,1,1-2.678-2.678,2.678,2.678,0,0,1,2.678,2.678" transform="translate(40.633 42.647)" fill="#5172b8"/>
    <path id="Path_1117" data-name="Path 1117" d="M52.315,48.035a2.678,2.678,0,1,0,2.678-2.678,2.678,2.678,0,0,0-2.678,2.678" transform="translate(49.191 42.647)" fill="#5172b8"/>
    <path id="Path_1118" data-name="Path 1118" d="M124.391,133.213l-1.907-16.836c-.433-2.371-10.563-6.68-18.1-10.344s-19-13.576-19-13.576v-4.74c3.63-3.881,7.15-12.07,8.442-13.578s3.234-7.973,3.234-9.7S94.9,61.211,94.9,61.211V49.8C92.954,30.637,73.707,31.845,73.707,31.845S54.457,30.637,52.517,49.8V61.211s-2.16,1.506-2.16,3.231,1.94,8.188,3.234,9.7,4.814,9.7,8.442,13.578v4.74s-11.461,9.915-19,13.576-17.67,7.973-18.1,10.344l-1.907,16.836ZM73.707,89.208s-9.835,2.344-16.531-16.4c0,0-3.345-14.059,0-23.766s10.38-3.347,10.38-3.347,9.372-7.105,20.753-2.047c0,0,5.607,6.832,1.339,27.822S73.707,89.208,73.707,89.208" transform="translate(21.648 29.928)" fill="#5172b8"/>
    <path id="Path_1119" data-name="Path 1119" d="M69.194,0c-2.759,2.823-5.029,5.409-7.423,8.095-.97,1.088-1.962,2.193-3.013,3.335-1.063,1.158-2.187,2.352-3.419,3.613-1.067-1.2-2.14-2.416-3.2-3.613-1.007-1.141-1.995-2.262-2.945-3.335-.369-.417-.733-.828-1.088-1.228L46.685,8.095c-.889.766-1.727,1.49-2.546,2.2l-1.432,1.234v.528l1.432,1.4c1.118,1.092,2.233,2.183,3.335,3.262,2.662,2.6,5.256,5.142,7.668,7.5,2.792-2.765,5.332-5.332,7.8-7.837,1.121-1.139,2.227-2.264,3.335-3.392,2.522-2.561,5.054-5.126,7.8-7.843C72.684,3.681,71.134,2.045,69.194,0" transform="translate(40.156 -0.001)" fill="#5172b8"/>
    <path id="Path_1120" data-name="Path 1120" d="M49.408,6.064l1.508,1.709c.132.006.264.008.394.019.376-.4.757-.811,1.149-1.234.858-.935,1.674-1.841,2.367-2.615a12.981,12.981,0,0,0-7.546-.291q1.042,1.179,2.128,2.412" transform="translate(44.456 3.034)" fill="#001231"/>
    <path id="Path_1121" data-name="Path 1121" d="M65.278,10.74c-.508.516-1.03,1.048-1.562,1.585a8.46,8.46,0,0,1-16.9-.386l-4-3.915a13,13,0,1,0,24.969.167Z" transform="translate(39.755 7.544)" fill="#001231"/>
    <path id="Path_1122" data-name="Path 1122" d="M100.372,15.515c-2.757,2.823-5.029,5.408-7.422,8.095-.972,1.087-1.962,2.193-3.013,3.335C88.872,28.1,87.75,29.3,86.518,30.558c-1.069-1.2-2.142-2.416-3.2-3.613-1.007-1.141-1.995-2.262-2.945-3.335-.369-.417-.731-.828-1.087-1.228-.493.423-.964.832-1.424,1.228l-2.548,2.2c-.481.415-.955.825-1.432,1.234v.528q.719.7,1.432,1.4Q77,30.609,78.652,32.232c2.664,2.6,5.256,5.142,7.67,7.5,2.79-2.765,5.33-5.332,7.8-7.837,1.123-1.139,2.229-2.264,3.337-3.392,2.52-2.561,5.052-5.126,7.8-7.843l-4.882-5.146" transform="translate(69.472 14.588)" fill="#fa3457"/>
    <path id="Path_1123" data-name="Path 1123" d="M80.586,21.579s.982,1.114,1.51,1.709c.13.006.262.01.392.019.376-.4.757-.811,1.149-1.234.858-.935,1.674-1.841,2.367-2.614a12.963,12.963,0,0,0-7.546-.293q1.042,1.179,2.128,2.412" transform="translate(73.772 17.622)" fill="#001231"/>
    <path id="Path_1124" data-name="Path 1124" d="M96.456,26.256c-.508.516-1.03,1.046-1.562,1.583A8.46,8.46,0,0,1,78,27.454L74,23.54a13,13,0,1,0,24.969.165Z" transform="translate(69.071 22.133)" fill="#001231"/>
    <path id="Path_1125" data-name="Path 1125" d="M38.829,15.515c-2.759,2.823-5.029,5.408-7.423,8.095-.97,1.087-1.962,2.193-3.013,3.335-1.063,1.158-2.187,2.352-3.419,3.613-1.067-1.2-2.14-2.416-3.2-3.613-1.007-1.141-1.995-2.262-2.945-3.335-.369-.417-.733-.828-1.088-1.228L16.32,23.61c-.889.766-1.727,1.49-2.546,2.2l-1.432,1.234v.528l1.432,1.4c1.118,1.092,2.233,2.183,3.335,3.262,2.662,2.6,5.256,5.142,7.668,7.5,2.792-2.765,5.332-5.332,7.8-7.837C33.7,30.756,34.8,29.631,35.911,28.5c2.522-2.561,5.054-5.126,7.8-7.843-1.391-1.465-2.941-3.1-4.882-5.146" transform="translate(11.605 14.588)" fill="#fa3457"/>
    <path id="Path_1126" data-name="Path 1126" d="M19.042,21.579l1.508,1.709c.132.006.264.01.394.019.376-.4.757-.811,1.149-1.234.858-.935,1.674-1.841,2.367-2.614a12.963,12.963,0,0,0-7.546-.293q1.042,1.179,2.128,2.412" transform="translate(15.904 17.622)" fill="#001231"/>
    <path id="Path_1127" data-name="Path 1127" d="M34.913,26.256c-.508.516-1.03,1.046-1.562,1.583a8.46,8.46,0,0,1-16.9-.386l-4-3.914a13,13,0,1,0,24.969.165Z" transform="translate(11.203 22.133)" fill="#001231"/>
    <path id="Path_1128" data-name="Path 1128" d="M111.9,46.459c-2.759,2.823-5.029,5.408-7.424,8.095-.97,1.087-1.962,2.193-3.013,3.335-1.063,1.158-2.187,2.352-3.419,3.613-1.067-1.2-2.14-2.416-3.2-3.613-1.007-1.141-1.995-2.262-2.945-3.335-.369-.417-.733-.828-1.089-1.228l-1.424,1.228c-.889.766-1.727,1.49-2.546,2.2l-1.432,1.234v.528l1.432,1.4c1.118,1.092,2.233,2.183,3.335,3.262,2.662,2.6,5.256,5.142,7.668,7.5,2.792-2.765,5.332-5.332,7.8-7.837,1.121-1.139,2.227-2.264,3.335-3.392,2.522-2.561,5.054-5.126,7.8-7.843-1.391-1.465-2.941-3.1-4.882-5.146" transform="translate(80.316 43.684)" fill="#5172b8"/>
    <path id="Path_1129" data-name="Path 1129" d="M92.118,52.523s.98,1.114,1.508,1.709c.132.006.264.01.394.019.376-.4.757-.811,1.149-1.234.858-.935,1.673-1.841,2.367-2.615a12.981,12.981,0,0,0-7.546-.291q1.042,1.179,2.128,2.412" transform="translate(84.615 46.718)" fill="#001231"/>
    <path id="Path_1130" data-name="Path 1130" d="M107.988,57.2c-.508.516-1.03,1.046-1.562,1.583a8.46,8.46,0,0,1-16.9-.384l-4-3.915a13,13,0,1,0,24.971.167Z" transform="translate(79.914 51.229)" fill="#001231"/>
    <path id="Path_1131" data-name="Path 1131" d="M26.914,46.459c-2.759,2.823-5.029,5.408-7.423,8.095-.97,1.087-1.962,2.193-3.013,3.335-1.063,1.158-2.187,2.352-3.419,3.613-1.067-1.2-2.14-2.416-3.2-3.613-1.007-1.141-2-2.262-2.945-3.335-.369-.417-.733-.828-1.088-1.228L4.4,54.554c-.889.766-1.727,1.49-2.546,2.2L.427,57.986v.528l1.432,1.4,3.335,3.262c2.662,2.6,5.256,5.142,7.668,7.5,2.792-2.765,5.33-5.332,7.8-7.837L24,59.447c2.522-2.561,5.054-5.126,7.8-7.843l-4.88-5.146" transform="translate(0.401 43.684)" fill="#5172b8"/>
    <path id="Path_1132" data-name="Path 1132" d="M7.128,52.523l1.508,1.709c.132.006.264.01.394.019.376-.4.757-.811,1.149-1.234.858-.935,1.674-1.841,2.367-2.615A12.981,12.981,0,0,0,5,50.111q1.042,1.179,2.128,2.412" transform="translate(4.701 46.718)" fill="#001231"/>
    <path id="Path_1133" data-name="Path 1133" d="M23,57.2c-.508.516-1.03,1.046-1.562,1.583A8.46,8.46,0,0,1,4.54,58.4l-4-3.915A12.879,12.879,0,0,0,0,58.174a13,13,0,1,0,25.507-3.524Z" transform="translate(0 51.229)" fill="#001231"/>
    <rect id="Rectangle_1682" data-name="Rectangle 1682" width="4.529" height="17.662" transform="translate(93.091 38.646)" fill="#001231"/>
    <rect id="Rectangle_1683" data-name="Rectangle 1683" width="4.528" height="25.189" transform="matrix(0.703, -0.712, 0.712, 0.703, 47.947, 65.297)" fill="#001231"/>
    <rect id="Rectangle_1684" data-name="Rectangle 1684" width="32.983" height="4.529" transform="translate(33.103 107.239)" fill="#001231"/>
    <rect id="Rectangle_1685" data-name="Rectangle 1685" width="25.189" height="4.528" transform="translate(121.654 79.771) rotate(-44.636)" fill="#001231"/>
    <rect id="Rectangle_1686" data-name="Rectangle 1686" width="32.983" height="4.529" transform="translate(124.622 107.239)" fill="#001231"/>
  </g>
</svg>
