<svg id="EngineersIcon" xmlns="http://www.w3.org/2000/svg" xmlns:xlink="http://www.w3.org/1999/xlink" width="151.676" height="167.718" viewBox="0 0 151.676 167.718">
  <defs>
    <clipPath id="clip-path">
      <rect id="Rectangle_1672" data-name="Rectangle 1672" width="151.676" height="167.718" fill="#2b88f1"/>
    </clipPath>
  </defs>
  <g id="Group_567" data-name="Group 567" transform="translate(0 0)" clip-path="url(#clip-path)">
    <path id="Path_1093" data-name="Path 1093" d="M40.872,22.464a7.394,7.394,0,0,1-4.782-1.759.879.879,0,0,1,1.136-1.34,5.63,5.63,0,0,0,7.292,0,.879.879,0,0,1,1.138,1.34,7.4,7.4,0,0,1-4.784,1.759" transform="translate(35.161 18.825)" fill="#2b88f1"/>
    <path id="Path_1094" data-name="Path 1094" d="M37.977,13.178a2.218,2.218,0,1,1-2.217-2.217,2.217,2.217,0,0,1,2.217,2.217" transform="translate(32.962 10.771)" fill="#2b88f1"/>
    <path id="Path_1095" data-name="Path 1095" d="M40.917,13.178a2.218,2.218,0,1,0,2.217-2.217,2.217,2.217,0,0,0-2.217,2.217" transform="translate(40.21 10.771)" fill="#2b88f1"/>
    <path id="Path_1096" data-name="Path 1096" d="M47.693,32.3A1.912,1.912,0,1,0,49.6,34.216,1.912,1.912,0,0,0,47.693,32.3" transform="translate(44.991 31.745)" fill="#2b88f1"/>
    <path id="Path_1097" data-name="Path 1097" d="M100.038,64.913c-.291-1.6-7.146-4.521-12.249-7S74.93,48.726,74.93,48.726V45.518c2.455-2.625,4.836-8.167,5.71-9.188s2.189-5.395,2.189-6.563-1.459-2.185-1.459-2.185V19.861C80.058,6.89,67.031,7.709,67.031,7.709S54,6.89,52.69,19.861v7.721s-1.459,1.019-1.459,2.185,1.315,5.542,2.189,6.563,3.258,6.563,5.71,9.188v3.208s-1.636,1.414-3.892,3.178c.361.172.72.341,1.085.514,9.456,4.465,12.814,6.3,13.369,9.343l.02.113.014.111,1.58,13.942.044.381H101.33Z" transform="translate(50.346 7.566)" fill="#001231"/>
    <path id="Path_1098" data-name="Path 1098" d="M1.488,64.913c.291-1.6,7.146-4.521,12.249-7s12.858-9.188,12.858-9.188V45.518c-2.455-2.625-4.836-8.167-5.71-9.188S18.7,30.935,18.7,29.767s1.459-2.185,1.459-2.185V19.861C21.468,6.89,34.494,7.709,34.494,7.709S47.523,6.89,48.835,19.861v7.721s1.459,1.019,1.459,2.185-1.315,5.542-2.189,6.563-3.258,6.563-5.71,9.188v3.208s1.636,1.414,3.892,3.178c-.361.172-.72.341-1.085.514-9.456,4.465-12.814,6.3-13.369,9.343l-.02.113-.014.111-1.58,13.942-.044.381H.2Z" transform="translate(0.194 7.566)" fill="#fa3457"/>
    <path id="Path_1099" data-name="Path 1099" d="M99.535,70.005c-.357-1.961-8.744-5.53-14.987-8.563-4.047-1.965-9.44-6.093-12.747-8.764L68.815,50.2V46.276c3-3.214,5.916-9.995,6.987-11.244s2.679-6.6,2.679-8.03-1.786-2.675-1.786-2.675V14.882C75.088-.99,59.149.013,59.149.013S43.208-.99,41.6,14.882v9.446S39.818,25.574,39.818,27s1.606,6.781,2.677,8.03,3.985,8.03,6.989,11.244V48.82l.109-.091V49.6l-2.744,2.8c-3.266,2.651-8.906,7.011-13.1,9.047-6.246,3.034-14.632,6.6-14.989,8.563l-1.58,13.942h83.934ZM45.463,33.928s-2.772-11.641,0-19.678,8.593-2.772,8.593-2.772,7.76-5.883,17.184-1.7c0,0,4.644,5.657,1.108,23.037s-13.2,14.69-13.2,14.69S51.006,49.45,45.463,33.928" transform="translate(16.884 0)" fill="#5172b8"/>
    <path id="Path_1100" data-name="Path 1100" d="M106.589,46.338a30.752,30.752,0,0,1-61.5,0H0A75.243,75.243,0,0,0,1.511,61.389l20.947-2.9,3.476,8.429,3.478,8.429-16.9,12.711a75.4,75.4,0,0,0,21.415,21.479L46.685,92.676l8.419,3.5,8.419,3.5-2.964,20.938a75.393,75.393,0,0,0,30.33.048l-2.9-20.947,8.429-3.476,8.429-3.478,12.711,16.9a75.4,75.4,0,0,0,21.479-21.415L122.175,75.488l3.5-8.417,3.5-8.417,20.938,2.962a75.464,75.464,0,0,0,1.558-15.279Z" transform="translate(0 45.537)" fill="#001231"/>
  </g>
</svg>
