<svg xmlns="http://www.w3.org/2000/svg" xmlns:xlink="http://www.w3.org/1999/xlink" width="190.671" height="58.519" viewBox="0 0 190.671 58.519">
  <defs>
    <clipPath id="clip-path">
      <path id="Path_1174" data-name="Path 1174" d="M0-707.88H58.519V-898.551H0Z" transform="translate(0 898.551)" fill="#2b88f1"/>
    </clipPath>
  </defs>
  <g id="EM_Rocket_Costs_Graphic" transform="translate(-707.88) rotate(90)">
    <g id="Group_597" data-name="Group 597" transform="translate(0 -898.551)" clip-path="url(#clip-path)">
      <g id="Group_595" data-name="Group 595" transform="translate(44.772 54.472)">
        <path id="Path_1172" data-name="Path 1172" d="M-15.707-10.293c-.02.048-.039.1-.059.145-.06.153-.12.31-.178.475-.015.043-.03.089-.045.132q-.07.206-.139.425c-.019.061-.038.121-.057.183q-.079.264-.155.545c-.019.072-.038.146-.058.22q-.057.218-.111.447c-.018.074-.036.145-.053.22-.045.2-.089.4-.133.606-.021.1-.042.2-.062.3q-.049.246-.1.5-.04.216-.079.439c-.027.153-.053.307-.079.464-.021.125-.041.25-.061.378q-.053.336-.1.686c-.019.136-.038.275-.057.414s-.041.3-.06.459c-.057.448-.113.905-.165,1.385-.946,8.723-2.052,21.749-2.482,26.914l7.62-8.154c.547-1.186,5.3-11.61,5.926-17.362A31.756,31.756,0,0,0-6.191-4c-.034-8.2-4.124-8.788-5.579-9a2.942,2.942,0,0,0-2.435.457,4.857,4.857,0,0,0-1.311,1.815c-.065.138-.128.285-.19.436" transform="translate(19.938 13.066)" fill="#2b88f1"/>
      </g>
      <g id="Group_596" data-name="Group 596" transform="translate(40.507 53.134)">
        <path id="Path_1173" data-name="Path 1173" d="M-27.219-10.787l-5.12-2.905L-34.551-2.92l5.314.626a28.213,28.213,0,0,1,2.018-8.493" transform="translate(34.551 13.692)" fill="#2b88f1"/>
      </g>
    </g>
    <g id="Group_598" data-name="Group 598" transform="translate(18.241 -822.115)">
      <path id="Path_1175" data-name="Path 1175" d="M-9.713,0l-2.616,6.794,4.108-.017Z" transform="translate(12.329)" fill="#2b88f1"/>
    </g>
    <g id="Group_599" data-name="Group 599" transform="translate(36.424 -822.246)">
      <path id="Path_1176" data-name="Path 1176" d="M-5.222,0-6.628,6.85l4.379-.018Z" transform="translate(6.628)" fill="#2b88f1"/>
    </g>
    <g id="Group_600" data-name="Group 600" transform="translate(26.649 -812.127)">
      <path id="Path_1177" data-name="Path 1177" d="M-18.855-1.145l-.064-.308-3.734.058-.6.009-.686,3.236,5.679-.089Z" transform="translate(23.934 1.453)" fill="#2b88f1"/>
    </g>
    <g id="Group_601" data-name="Group 601" transform="translate(31.311 -813.528)">
      <path id="Path_1178" data-name="Path 1178" d="M-.733-.048l-.2.584L.08.521.312,1.644,2.9,1.634,2.41-.061Z" transform="translate(0.93 0.061)" fill="#2b88f1"/>
    </g>
    <g id="Group_602" data-name="Group 602" transform="translate(23.8 -813.498)">
      <path id="Path_1179" data-name="Path 1179" d="M-14.467-2.317l-.181-.624-3.143.013-.573,1.7,2.653-.011.225-1.061Z" transform="translate(18.364 2.941)" fill="#2b88f1"/>
    </g>
    <g id="Group_609" data-name="Group 609" transform="translate(0 -898.551)" clip-path="url(#clip-path)">
      <g id="Group_603" data-name="Group 603" transform="translate(0 54.663)">
        <path id="Path_1180" data-name="Path 1180" d="M0-33.835A31.721,31.721,0,0,0,.229-30.3C.9-24.553,5.742-14.168,6.3-12.987L13.987-4.9c-.473-5.162-1.687-18.178-2.706-26.893-.056-.479-.115-.936-.177-1.383q-.032-.232-.064-.458c-.02-.139-.04-.278-.06-.414-.035-.234-.072-.461-.108-.685-.021-.128-.042-.253-.064-.377-.027-.157-.055-.311-.083-.464s-.055-.295-.083-.438q-.05-.255-.1-.5c-.021-.1-.043-.2-.065-.3-.045-.207-.091-.409-.138-.6-.018-.075-.036-.146-.055-.22q-.057-.228-.115-.446c-.02-.073-.039-.148-.06-.22q-.078-.28-.159-.543c-.019-.062-.039-.121-.058-.182q-.07-.218-.142-.424c-.015-.044-.03-.089-.046-.132-.06-.165-.121-.321-.183-.474-.02-.049-.04-.1-.06-.144-.063-.15-.128-.3-.194-.435a4.863,4.863,0,0,0-1.327-1.8A2.943,2.943,0,0,0,5.5-42.877c-1.453.221-5.539.842-5.5,9.043" transform="translate(0.001 42.948)" fill="#2b88f1"/>
      </g>
      <g id="Group_604" data-name="Group 604" transform="translate(10.617 53.246)">
        <path id="Path_1181" data-name="Path 1181" d="M-7.753-42.414l5.309-.671-2.3-10.754-5.1,2.948a28.2,28.2,0,0,1,2.088,8.476" transform="translate(9.841 53.839)" fill="#2b88f1"/>
      </g>
      <g id="Group_605" data-name="Group 605" transform="translate(14.546 0)">
        <path id="Path_1182" data-name="Path 1182" d="M-53.642,0c-.416.46-14.518,17.013-14.449,33.634A51.22,51.22,0,0,0-66.943,44.59h-.016l8.5,38.675,10.4-.043,8.4-40.2h-.024a52.886,52.886,0,0,0,.773-9.515C-38.984,16.892-53.642,0-53.642,0" transform="translate(68.091 0)" fill="#2b88f1"/>
      </g>
      <g id="Group_606" data-name="Group 606" transform="translate(17.03 125.778) rotate(-90)">
        <path id="Path_1183" data-name="Path 1183" d="M-27.482-60.817h9.654v3.659H-34.885v-3.659h2.815v-4.841h-2.815v-2.73h2.815v-.732a7.545,7.545,0,0,1,2.406-5.925A9.761,9.761,0,0,1-22.923-77.2,11.321,11.321,0,0,1-17.265-75.9l-1.379,3.6a8.084,8.084,0,0,0-4.222-1.013A5.043,5.043,0,0,0-26.3-72.272,3.871,3.871,0,0,0-27.482-69.2v.816h6.755v2.73h-6.755Z" transform="translate(34.885 77.198)" fill="#0d2c50"/>
      </g>
      <g id="Group_607" data-name="Group 607" transform="translate(27.192 160.074) rotate(-90)">
        <path id="Path_1184" data-name="Path 1184" d="M-21.056-46.6h7.4v2.8H-26.728v-2.8h2.157v-3.709h-2.157V-52.4h2.157v-.561a5.781,5.781,0,0,1,1.843-4.54,7.479,7.479,0,0,1,5.165-1.65,8.675,8.675,0,0,1,4.335.992l-1.057,2.76a6.194,6.194,0,0,0-3.235-.776,3.863,3.863,0,0,0-2.631.8,2.966,2.966,0,0,0-.906,2.351v.625h5.176v2.092h-5.176Z" transform="translate(26.728 59.147)" fill="#0d2c50"/>
      </g>
      <g id="Group_608" data-name="Group 608" transform="translate(18.585 190.06) rotate(-90)">
        <path id="Path_1185" data-name="Path 1185" d="M-13.856-30.662h4.867v1.845h-8.6v-1.845h1.419V-33.1h-1.419v-1.377h1.419v-.369a3.8,3.8,0,0,1,1.213-2.987,4.921,4.921,0,0,1,3.4-1.086,5.7,5.7,0,0,1,2.852.653l-.7,1.816a4.076,4.076,0,0,0-2.128-.511,2.542,2.542,0,0,0-1.731.525,1.952,1.952,0,0,0-.6,1.547v.412h3.406V-33.1h-3.406Z" transform="translate(17.588 38.921)" fill="#0d2c50"/>
      </g>
    </g>
  </g>
</svg>
