<svg xmlns="http://www.w3.org/2000/svg" xmlns:xlink="http://www.w3.org/1999/xlink" width="108.217" height="99.572" viewBox="0 0 108.217 99.572">
  <defs>
    <clipPath id="clip-path">
      <path id="Path_1160" data-name="Path 1160" d="M0-311.82H64.246v-87.866H0Z" transform="translate(0 399.686)" fill="#fff"/>
    </clipPath>
  </defs>
  <g id="EM_Rocket" transform="translate(-270.044 199.843) rotate(60)">
    <g id="Group_582" data-name="Group 582" transform="translate(0 -399.686)" clip-path="url(#clip-path)">
      <g id="Group_579" data-name="Group 579" transform="translate(28.989 58.46)">
        <path id="Path_1157" data-name="Path 1157" d="M-77.9-4.183l-.125.094c-.132.1-.265.2-.4.317l-.107.091q-.168.141-.339.294l-.144.128q-.2.186-.415.389l-.164.16q-.162.159-.328.327c-.053.054-.106.107-.16.162-.14.145-.284.3-.428.453l-.211.229c-.113.124-.227.251-.343.381-.1.11-.2.223-.3.337s-.2.237-.309.359l-.248.294c-.146.175-.294.354-.444.538-.087.107-.175.217-.263.327s-.193.241-.29.363c-.281.356-.566.721-.86,1.107C-89.1,9.182-96.8,19.821-99.849,24.045l10.783-3.07c1.086-.737,10.579-7.246,14.1-11.874a31.9,31.9,0,0,0,2-2.941c4.22-7.077,1-9.7-.141-10.634a2.958,2.958,0,0,0-2.333-.868,4.888,4.888,0,0,0-2.07.883c-.127.086-.257.179-.39.277" transform="translate(99.849 5.362)" fill="#fff"/>
      </g>
      <g id="Group_580" data-name="Group 580" transform="translate(40.176 52.845)">
        <path id="Path_1158" data-name="Path 1158" d="M-36.859-18.288l-2.9-5.153-7.485,8.126L-43-12.022a28.328,28.328,0,0,1,6.137-6.265" transform="translate(47.245 23.441)" fill="#fff"/>
      </g>
      <g id="Group_581" data-name="Group 581" transform="translate(11.824 78.218)">
        <path id="Path_1159" data-name="Path 1159" d="M-2.525-8.243c-.018.027-.036.055-.051.081-.8,1.334,1.961,1.312-.567,5.552l-.093.155S.406-4.009,1.5-5.843h0c.915-1.534,1.051-3.2.423-4.09a9.343,9.343,0,0,1-.5,2.327l-.023.04c-.386.647-.678-.2-1.074.465A5.143,5.143,0,0,0-.126-5.769,2.4,2.4,0,0,1-.7-8.785c.016-.031.035-.062.053-.095A8.48,8.48,0,0,1,.84-10.561c-1.057-.087-2.38.86-3.365,2.317" transform="translate(3.237 10.566)" fill="#fff"/>
      </g>
    </g>
    <g id="Group_583" data-name="Group 583" transform="translate(10.999 -338.11)">
      <path id="Path_1161" data-name="Path 1161" d="M-20.482,0l-5.771,4.492,3.545,2.113Z" transform="translate(26.253)" fill="#fff"/>
    </g>
    <g id="Group_584" data-name="Group 584" transform="translate(26.69 -329.43)">
      <path id="Path_1162" data-name="Path 1162" d="M-16.889,0l-4.759,5.167,3.779,2.253Z" transform="translate(21.648)" fill="#fff"/>
    </g>
    <g id="Group_585" data-name="Group 585" transform="translate(14.871 -326.1)">
      <path id="Path_1163" data-name="Path 1163" d="M-21.02-8.813l.1-.3L-24.16-11l-.517-.3-2.267,2.43L-22.009-6Z" transform="translate(26.943 11.296)" fill="#fff"/>
    </g>
    <g id="Group_586" data-name="Group 586" transform="translate(21.012 -325.19)">
      <path id="Path_1164" data-name="Path 1164" d="M-1.676,0l-.472.4.877.51L-1.653,2,.581,3.33l.456-1.713Z" transform="translate(2.148)" fill="#fff"/>
    </g>
    <g id="Group_587" data-name="Group 587" transform="translate(13.953 -328.861)">
      <path id="Path_1165" data-name="Path 1165" d="M-13.9-7.977l.168-.631-2.712-1.617L-17.822-9.06l2.289,1.365.744-.8Z" transform="translate(17.822 10.225)" fill="#fff"/>
    </g>
    <g id="Group_592" data-name="Group 592" transform="translate(0 -399.686)" clip-path="url(#clip-path)">
      <g id="Group_588" data-name="Group 588" transform="translate(0 34.388)">
        <path id="Path_1166" data-name="Path 1166" d="M-19.084-19.465A31.95,31.95,0,0,0-20.717-16.3c-2.4,5.294-3.611,16.74-3.744,18.046l2.425,10.946C-19.767,8-14.07-3.831-10.432-11.86c.2-.441.386-.866.565-1.282q.093-.216.182-.427c.054-.13.11-.26.162-.387.091-.219.177-.434.262-.646.048-.121.094-.24.14-.358.058-.149.115-.3.169-.442s.106-.282.156-.42c.06-.163.117-.324.173-.482.034-.1.069-.2.1-.294.068-.2.134-.4.195-.592.023-.074.045-.145.067-.218q.069-.226.132-.443c.021-.074.043-.148.063-.22q.078-.282.144-.55c.016-.063.03-.125.045-.187q.053-.224.1-.439c.009-.046.02-.092.029-.137.034-.173.063-.339.088-.5.008-.052.016-.1.023-.155.024-.162.044-.322.059-.474a4.887,4.887,0,0,0-.207-2.24A2.956,2.956,0,0,0-9.662-24.4c-1.365-.562-5.2-2.145-9.422,4.932" transform="translate(24.461 24.95)" fill="#fff"/>
      </g>
      <g id="Group_589" data-name="Group 589" transform="translate(4.736 39.489)">
        <path id="Path_1167" data-name="Path 1167" d="M-2.282-1.36l-.643-.383h0Z" transform="translate(2.925 1.743)" fill="#fff"/>
      </g>
      <g id="Group_590" data-name="Group 590" transform="translate(15.85 38.848)">
        <path id="Path_1168" data-name="Path 1168" d="M0-29.731l4.917,2.173,3.59-10.449-5.913-.1A28.349,28.349,0,0,1,0-29.731" transform="translate(0 38.109)" fill="#fff"/>
      </g>
      <g id="Group_591" data-name="Group 591" transform="translate(16.088 0)">
        <path id="Path_1169" data-name="Path 1169" d="M-167.811,0c-.6.181-21.31,7.122-29.861,21.464A51.436,51.436,0,0,0-202.36,31.49l-.015-.008L-215.1,69.172l8.97,5.348,28.058-30.244-.022-.011a53.162,53.162,0,0,0,5.6-7.79C-163.945,22.134-167.811,0-167.811,0" transform="translate(215.098)" fill="#fff"/>
      </g>
    </g>
  </g>
</svg>
