<svg xmlns="http://www.w3.org/2000/svg" xmlns:xlink="http://www.w3.org/1999/xlink" width="154" height="154" viewBox="0 0 154 154">
  <defs>
    <clipPath id="clip-path">
      <rect id="Rectangle_1678" data-name="Rectangle 1678" width="119.87" height="114.662" fill="#2b88f1"/>
    </clipPath>
  </defs>
  <g id="TimeIcon" transform="translate(-1071 -4824)">
    <circle id="Ellipse_1544" data-name="Ellipse 1544" cx="77" cy="77" r="77" transform="translate(1071 4824)" fill="#fff"/>
    <g id="Group_570" data-name="Group 570" transform="translate(1084 4844)">
      <g id="Group_569" data-name="Group 569" transform="translate(0 0)" clip-path="url(#clip-path)">
        <path id="Path_1101" data-name="Path 1101" d="M53.677,84.516A34.809,34.809,0,1,1,88.487,49.7,34.85,34.85,0,0,1,53.677,84.516m0-61.954A27.144,27.144,0,1,0,80.82,49.706,27.176,27.176,0,0,0,53.677,22.562" transform="translate(9.657 7.624)" fill="#5172b8"/>
        <path id="Path_1102" data-name="Path 1102" d="M42.886,41.85a2.934,2.934,0,1,1,2.934-2.934,2.938,2.938,0,0,1-2.934,2.934" transform="translate(20.448 18.415)" fill="#5172b8"/>
        <rect id="Rectangle_1674" data-name="Rectangle 1674" width="4.099" height="6.161" rx="0.975" transform="translate(61.422 32.163)" fill="#5172b8"/>
        <path id="Path_1103" data-name="Path 1103" d="M40.668,44.414a1.47,1.47,0,0,1-1.276-.738l-.576-1a1.476,1.476,0,0,1,.541-2.014l13.565-7.833a1.474,1.474,0,0,1,2.014.538l.574,1a1.471,1.471,0,0,1-.537,2.014L41.405,44.218a1.481,1.481,0,0,1-.738.2" transform="translate(19.765 16.703)" fill="#5172b8"/>
        <path id="Rectangle_1675" data-name="Rectangle 1675" d="M.975,0H5.186a.975.975,0,0,1,.975.975V3.124a.976.976,0,0,1-.976.976H.975A.975.975,0,0,1,0,3.125V.975A.975.975,0,0,1,.975,0Z" transform="translate(82.34 55.28)" fill="#5172b8"/>
        <rect id="Rectangle_1676" data-name="Rectangle 1676" width="4.1" height="6.159" rx="0.975" transform="translate(61.34 76.409)" fill="#5172b8"/>
        <rect id="Rectangle_1677" data-name="Rectangle 1677" width="6.159" height="4.1" rx="0.975" transform="translate(38.168 55.418)" fill="#5172b8"/>
        <path id="Path_1104" data-name="Path 1104" d="M46.833,48.069a1.5,1.5,0,0,1-.382-.05,1.478,1.478,0,0,1-.895-.688L36.249,31.212A1.473,1.473,0,0,1,36.79,29.2l1-.576a1.483,1.483,0,0,1,.738-.2,1.51,1.51,0,0,1,.382.05,1.486,1.486,0,0,1,.895.688l9.307,16.117a1.475,1.475,0,0,1-.543,2.014l-.995.576a1.467,1.467,0,0,1-.738.2" transform="translate(18.451 14.549)" fill="#5172b8"/>
        <path id="Path_1105" data-name="Path 1105" d="M14.595,26.183l7.366,14.268L0,33.444Z" transform="translate(0 13.4)" fill="#fa3457"/>
        <path id="Path_1106" data-name="Path 1106" d="M48.123,74.46,56.8,60.947,61.71,83.468Z" transform="translate(24.63 31.193)" fill="#5172b8"/>
        <path id="Path_1107" data-name="Path 1107" d="M72.166,20.226l-16.039-.754L73.174,3.956Z" transform="translate(28.726 2.025)" fill="#001231"/>
        <path id="Path_1108" data-name="Path 1108" d="M77.59,23.377A48.328,48.328,0,0,1,54.419,91.893l1.742,7.985a56.371,56.371,0,0,0,27.5-82.025Z" transform="translate(27.852 9.138)" fill="#5172b8"/>
        <path id="Path_1109" data-name="Path 1109" d="M16.6,32.873A48.414,48.414,0,0,1,88.266,17.989L94.293,12.5A56.422,56.422,0,0,0,8.814,30.389Z" transform="translate(4.511 0)" fill="#001231"/>
        <path id="Path_1110" data-name="Path 1110" d="M61.045,88.395A48.414,48.414,0,0,1,12.907,34.727L5.12,32.243A56.436,56.436,0,0,0,62.794,96.41Z" transform="translate(2.348 16.502)" fill="#fa3457"/>
      </g>
    </g>
  </g>
</svg>
