<?xml version="1.0" encoding="utf-8"?>
<!-- Generator: Adobe Illustrator 26.0.0, SVG Export Plug-In . SVG Version: 6.00 Build 0)  -->
<svg version="1.1" id="Layer_1" xmlns="http://www.w3.org/2000/svg" xmlns:xlink="http://www.w3.org/1999/xlink" x="0px" y="0px"
	 viewBox="0 0 266 166" style="enable-background:new 0 0 266 166;" xml:space="preserve">
<style type="text/css">
	.st0{fill:#FFFFFF;}
</style>
<g id="EM_Logo_2" transform="translate(302.483 -35.459)">
	<g id="Group_23" transform="translate(-302.464 35.459)">
		<path id="Path_1" class="st0" d="M9.1,94L0,124.3h19.1l7.3-7.5H9.8l4.6-15.1H31L28.2,94H9.1z M14.8,105.4l-2.3,7.6H18l7.3-7.5
			L14.8,105.4z"/>
		<path id="Path_2" class="st0" d="M55.4,94l-7.8,8.3L44.7,94h-9l5.3,15.2l-14.4,15.1h9l7.7-8.1l2.7,8.1h9.1L50,109.2L64.4,94H55.4z
			"/>
		<g id="Group_3" transform="translate(57.902 0)">
			<path id="Path_3" class="st0" d="M23,115.2H10.2l-2.7,9.1h-7.6l6.4-21.2h7.6l-1.4,4.5h9l1.8-6H6.7L9,94h20.4
				c0.9,0.1,1.6,0.6,2,1.3c0.6,0.7,0.8,1.6,0.6,2.4l-4.1,13.7c-0.4,1-1,1.9-1.9,2.6C25.1,114.7,24.1,115.1,23,115.2"/>
		</g>
		<g id="Group_4" transform="translate(85.052 0)">
			<path id="Path_4" class="st0" d="M17.1,124.3l-3.1-9.1h-3.9l-2.7,9.1h-7.5l6.4-21.2h7.5l-1.4,4.5h9.1l1.8-6H6.7L9,94h20.4
				c0.9,0.1,1.6,0.6,2,1.3c0.6,0.7,0.8,1.6,0.6,2.4l-4.1,13.6c-0.4,1-1,1.9-1.9,2.6c-0.8,0.7-1.8,1.1-2.9,1.2l3.1,9.1L17.1,124.3z"
				/>
		</g>
		<g id="Group_5" transform="translate(112.855 0)">
			<path id="Path_5" class="st0" d="M17.8,112.9h-5.5l2.3-7.6h10.6L17.8,112.9z M18.9,124.2H-0.2L8.9,94H28l2.8,7.5H14.2l-4.6,15.1
				h16.5L18.9,124.2z"/>
		</g>
		<g id="Group_6" transform="translate(141.819)">
			<path id="Path_6" class="st0" d="M5.8,101.6L7,97.8c0.3-1.1,1-2,1.9-2.6c0.9-0.7,1.9-1.1,3-1.1h15.3l2.8,7.5H5.8z M19.3,124.3
				H2.5l-2.8-7.5h15.5l-8.7-13.6h10.3c2,3.1,4,6.1,6,9.1c1.6,2.9,2.3,4.9,2,6l-0.7,2.3c-0.3,1.1-1,2-1.9,2.7
				C21.5,123.8,20.4,124.2,19.3,124.3"/>
		</g>
		<g id="Group_7" transform="translate(169.249)">
			<path id="Path_7" class="st0" d="M5.8,101.6l1.1-3.8c0.3-1.1,1-2,1.9-2.6c0.9-0.7,1.9-1.1,3-1.1h15.3l2.8,7.5H5.8z M19.3,124.3
				H2.5l-2.8-7.5h15.5l-8.7-13.6h10.3c2,3.1,4,6.1,6,9.1c1.6,2.9,2.3,4.9,2,6l-0.7,2.3c-0.3,1.1-1,2-1.9,2.7
				C21.4,123.8,20.4,124.2,19.3,124.3"/>
		</g>
	</g>
	<g id="Group_8" transform="translate(-302.483 76.055)">
		<path id="Path_8" class="st0" d="M28.6,125.4l5.8-19.3c-1.9,2.2-3.4,4-4.5,5.4c-4.1,4.8-7.3,7.1-9.8,7.1c-2.5,0-4.3-2.4-5.5-7.1
			c-0.5-1.8-0.9-3.6-1.3-5.5l-5.8,19.3H0l7.6-25.2c0.5-1.7,1.6-3.2,3-4.3c1.3-1.1,3-1.8,4.7-1.8c2.8,0,4.9,2.7,6.3,8.2
			c0.5,2.1,1,4.2,1.5,6.3c1.5-1.8,3-3.6,4.6-5.4c1.8-2.2,3.8-4.2,5.9-6.1c2.3-1.9,4.4-2.9,6.1-2.9c1.4-0.1,2.8,0.6,3.6,1.8
			c0.8,1.3,1,2.9,0.4,4.3l-7.6,25.2H28.6z"/>
	</g>
	<g id="Group_9" transform="translate(-263.257 76.055)">
		<path id="Path_9" class="st0" d="M18.1,113.6h-5.5l2.4-7.8h10.6L18.1,113.6z M19,125.4H-0.1l9.4-31.3h19.1l2.7,7.8H14.6l-4.7,15.7
			h16.5L19,125.4z"/>
	</g>
	<g id="Group_10" transform="translate(-237.047 76.055)">
		<path id="Path_10" class="st0" d="M17.2,125.4l-3-9.4h-3.9l-2.8,9.4h-7.5l6.6-21.9H14l-1.4,4.7h9.1l1.9-6.3H7l2.4-7.8h20.4
			c0.9,0.1,1.6,0.6,2,1.4c0.6,0.7,0.8,1.6,0.5,2.5L28,112.1c-0.4,1.1-1.1,2-2,2.7c-0.8,0.7-1.8,1.2-2.9,1.2l3,9.4L17.2,125.4z"/>
	</g>
	<g id="Group_11" transform="translate(-208.635 76.055)">
		<path id="Path_11" class="st0" d="M5.9,101.9L7.1,98c0.3-1.1,1-2,1.9-2.7c0.8-0.7,1.9-1.1,3-1.2h15.3l2.7,7.8L5.9,101.9z
			 M17.9,125.4H2.6c-0.9,0.1-1.8-0.4-2.3-1.2c-0.5-0.8-0.6-1.8-0.3-2.8l5.4-18H13l-4.3,14.1h16.5L17.9,125.4z"/>
	</g>
	<g id="Group_12" transform="translate(-184.355 76.055)">
		<path id="Path_12" class="st0" d="M16.4,125.4l3.5-11.7h-7.5l2.4-7.8h7.5l3.5-11.8h7.5l-9.4,31.3H16.4z M-0.2,125.4l9.4-31.3h7.6
			l-9.4,31.3H-0.2z"/>
	</g>
	<g id="Group_13" transform="translate(-159.049 76.055)">
		<path id="Path_13" class="st0" d="M20.8,125.4l1.4-4.7h-9.1l-4.4,4.7h-9L26,97c1.5-1.8,3.6-2.8,5.9-2.9c1.4-0.1,2.8,0.6,3.6,1.8
			c0.8,1.3,1,2.9,0.5,4.3l-3.4,11.1H25l1.6-5.2l-6.3,6.8h11.9l-3.8,12.5H20.8z"/>
	</g>
	<g id="Group_14" transform="translate(-127.878 76.055)">
		<path id="Path_14" class="st0" d="M22.4,125.4c-1.9,0.2-3.6-1.1-4.1-2.9L13,106.1l-5.8,19.3h-7.5l7.6-25.2c0.5-1.7,1.6-3.2,3-4.3
			c1.3-1.1,3-1.8,4.7-1.8c1.9-0.2,3.6,1.1,4.1,2.9l5.3,16.4l5.8-19.3h7.6l-7.6,25.2c-0.5,1.7-1.6,3.2-3,4.3
			C25.8,124.7,24.2,125.4,22.4,125.4"/>
	</g>
	<g id="Group_16" transform="translate(-89.875 76.055)">
		<path id="Path_16" class="st0" d="M21.7,101.9h-5.5l2.4-7.8h10.6L21.7,101.9z M0,125.4l7.1-23.5h-7.5L2,94.1h15l-9.4,31.3H0z"/>
	</g>
	<g id="Group_17" transform="translate(-66.39 76.055)">
		<path id="Path_17" class="st0" d="M5.8,101.9L7,98c0.3-1.1,1-2.1,1.9-2.7c0.8-0.7,1.9-1.1,3-1.1h15.3l2.7,7.8L5.8,101.9z
			 M19.1,125.4H2.3l-2.7-7.8h15.5l-8.5-14.1h10.3c2,3.2,3.9,6.3,5.9,9.5c1.6,3,2.2,5.1,1.9,6.2l-0.7,2.3c-0.3,1.1-1,2.1-2,2.8
			C21.2,124.9,20.2,125.4,19.1,125.4"/>
	</g>
</g>
<path id="Path_1157" class="st0" d="M50.7,50.1L50.5,50c-0.2-0.1-0.3-0.1-0.5-0.2l-0.1,0c-0.1,0-0.3-0.1-0.4-0.1l-0.2-0.1
	c-0.2-0.1-0.4-0.1-0.5-0.2l-0.2-0.1c-0.1,0-0.3-0.1-0.4-0.1c-0.1,0-0.1,0-0.2-0.1c-0.2,0-0.4-0.1-0.6-0.1L47,49
	c-0.2,0-0.3-0.1-0.5-0.1c-0.1,0-0.3-0.1-0.4-0.1c-0.1,0-0.3-0.1-0.5-0.1l-0.4-0.1c-0.2,0-0.5-0.1-0.7-0.1c-0.1,0-0.3,0-0.4-0.1
	c-0.1,0-0.3,0-0.5-0.1c-0.4-0.1-0.9-0.1-1.4-0.2c-8.7-1.1-21.8-2.5-27-3l8.1,7.8c1.2,0.6,11.6,5.5,17.3,6.3c1.2,0.2,2.4,0.2,3.5,0.3
	c8.2,0.1,8.9-4,9.1-5.4c0.2-0.8,0.1-1.7-0.4-2.5c-0.5-0.6-1.1-1-1.8-1.4C51,50.2,50.8,50.2,50.7,50.1"/>
<path id="Path_1158" class="st0" d="M51.9,48.9l3-5.1l-10.8-2.4l-0.7,5.3C46.3,47,49.2,47.8,51.9,48.9"/>
<path id="Path_1159" class="st0" d="M13.4,27.3C13.3,27.3,13.3,27.3,13.4,27.3c-1.7,0-0.3,2.4-5.2,2.3l-0.2,0c0,0,3.2,2.4,5.3,2.4
	l0,0c1.8,0,3.3-0.7,3.8-1.7c-0.7,0.3-1.5,0.6-2.3,0.7l0,0c-0.8,0-0.2-0.7-0.9-0.7c-0.5,0-0.9,0.1-1.4,0.3c0.2-1.1,1.2-2,2.3-2
	c0,0,0.1,0,0.1,0c0.7,0.1,1.5,0.2,2.2,0.4C16.6,28.1,15.1,27.4,13.4,27.3"/>
<path id="Path_1161" class="st0" d="M31.9,21.5l-6.8-2.8l-0.1,4.1L31.9,21.5z"/>
<path id="Path_1162" class="st0" d="M31.7,38.5L24.9,37l-0.1,4.4L31.7,38.5z"/>
<path id="Path_1163" class="st0" d="M21.4,32.2l0.3-0.1l0-3.7l0-0.6L18.5,27l0,5.7L21.4,32.2z"/>
<path id="Path_1164" class="st0" d="M23.1,32l-0.6-0.2l0,1L21.4,33l0,2.6l1.7-0.5L23.1,32z"/>
<path id="Path_1165" class="st0" d="M22.5,28.2l0.6-0.2l0-3.2l-1.7-0.6l0,2.7l1.1,0.2L22.5,28.2z"/>
<path id="Path_1166" class="st0" d="M45,0.7c-1.2,0-2.4,0-3.6,0.2C35.7,1.5,25.1,6.2,24,6.7l-8.3,7.6c5.2-0.4,18.3-1.4,27.1-2.2
	c0.5,0,0.9-0.1,1.4-0.2c0.2,0,0.3,0,0.5-0.1c0.1,0,0.3,0,0.4-0.1c0.2,0,0.5-0.1,0.7-0.1c0.1,0,0.3,0,0.4-0.1c0.2,0,0.3-0.1,0.5-0.1
	c0.1,0,0.3,0,0.4-0.1c0.2,0,0.3-0.1,0.5-0.1c0.1,0,0.2,0,0.3-0.1c0.2,0,0.4-0.1,0.6-0.1c0.1,0,0.1,0,0.2-0.1c0.2,0,0.3-0.1,0.4-0.1
	c0.1,0,0.1,0,0.2-0.1c0.2,0,0.4-0.1,0.5-0.2c0.1,0,0.1,0,0.2-0.1c0.1,0,0.3-0.1,0.4-0.1c0,0,0.1,0,0.1,0c0.2-0.1,0.3-0.1,0.5-0.2
	c0,0,0.1,0,0.1-0.1c0.2-0.1,0.3-0.1,0.4-0.2c0.7-0.3,1.3-0.7,1.8-1.3C54,8.2,54.2,7.3,54,6.4C53.8,5,53.3,0.9,45,0.7"/>
<path id="Path_1167" class="st0" d="M45,0.7L45,0l0,0L45,0.7z"/>
<path id="Path_1168" class="st0" d="M43.9,13.5l0.6,5.3l10.8-2.1l-2.9-5.2C49.7,12.6,46.8,13.3,43.9,13.5"/>
<path id="Path_1169" class="st0" d="M108.5,31c-0.5-0.4-16.8-14.9-33.5-15.1c-3.7-0.1-7.4,0.2-11,1l0,0l-39,7.8l-0.1,10.4l40.2,9.2
	l0,0c3.1,0.6,6.3,0.9,9.5,1C91.3,45.5,108.5,31,108.5,31"/>
</svg>
