<svg id="EM_Logo_Icon_rgbrev_2125" xmlns="http://www.w3.org/2000/svg" xmlns:xlink="http://www.w3.org/1999/xlink" width="89.893" height="54.951" viewBox="0 0 89.893 54.951">
  <defs>
    <linearGradient id="linear-gradient" x1="-0.27" y1="0.5" x2="0.964" y2="0.5" gradientUnits="objectBoundingBox">
      <stop offset="0.368" stop-color="#fff"/>
      <stop offset="0.598" stop-color="#b2bbdf"/>
      <stop offset="0.874" stop-color="#6c83c1"/>
      <stop offset="1" stop-color="#5172b8"/>
    </linearGradient>
    <linearGradient id="linear-gradient-2" x1="-0.204" y1="0.5" x2="2.214" y2="0.5" gradientUnits="objectBoundingBox">
      <stop offset="0.161" stop-color="#fff"/>
      <stop offset="0.234" stop-color="#edeef7"/>
      <stop offset="0.373" stop-color="#c7cde8"/>
      <stop offset="0.563" stop-color="#909fd1"/>
      <stop offset="0.78" stop-color="#5172b8"/>
    </linearGradient>
    <linearGradient id="linear-gradient-3" x1="-2.932" y1="0.482" x2="6.17" y2="0.482" gradientUnits="objectBoundingBox">
      <stop offset="0.023" stop-color="#fff"/>
      <stop offset="0.811" stop-color="#fff" stop-opacity="0.4"/>
    </linearGradient>
    <linearGradient id="linear-gradient-4" x1="-2.917" y1="0.474" x2="6.139" y2="0.474" xlink:href="#linear-gradient-3"/>
    <linearGradient id="linear-gradient-5" x1="-0.022" y1="0.5" x2="2.756" y2="0.5" gradientUnits="objectBoundingBox">
      <stop offset="0.15" stop-color="#fff"/>
      <stop offset="0.16" stop-color="#f7f7fc"/>
      <stop offset="0.371" stop-color="#97a5d4"/>
      <stop offset="0.517" stop-color="#657fbf"/>
      <stop offset="0.587" stop-color="#5172b8"/>
    </linearGradient>
  </defs>
  <g id="Group_631" data-name="Group 631" transform="translate(23.19 0.233)">
    <path id="Path_1211" data-name="Path 1211" d="M737.951,253.615a1.481,1.481,0,0,0-.349-.349l-28.852-22.26-4.072-3.141a3.9,3.9,0,0,0-1.784-.465l-21.794.078,9.075.931,6.67.659.388,1.474.233.931h0l2.56,10.393,2.249,12.8L700.025,267.5l-2.366,9.424h0l-.271,1.047h0l-.155.7-.388,1.512-1.435.155-14.155,1.59s20.553,0,21.484-.039a4.665,4.665,0,0,0,1.474-.194l.233-.116a.812.812,0,0,0,.233-.155l5.817-4.5v-5l.039-29.279,5.7,4.382-.194,25.866h0l4.111-3.219,2.637-2.094V251.948l5.739,4.3v6.942l1.939-1.512,7.174-5.584A1.824,1.824,0,0,0,737.951,253.615ZM700.412,268.39Z" transform="translate(-671.599 -227.4)" fill="url(#linear-gradient)"/>
    <path id="Path_1212" data-name="Path 1212" d="M683.629,286.534l2.172-12.565-2.172-12.487-.582-2.366L661.719,259l-4.615,4.266,4.537,5.739h9.811l4.5,5.041-4.46,5.08h-10.16l-4.731,5.08,4.5,4.692h21.949Z" transform="translate(-656.6 -246.746)" fill="url(#linear-gradient-2)"/>
    <path id="Path_1213" data-name="Path 1213" d="M707.656,355.5l-7.756.892h7.523Z" transform="translate(-683.108 -305.823)" fill="url(#linear-gradient-3)"/>
    <path id="Path_1214" data-name="Path 1214" d="M707.5,237.9h-7.6l7.795.892Z" transform="translate(-683.108 -233.828)" fill="url(#linear-gradient-4)"/>
  </g>
  <g id="Group_632" data-name="Group 632">
    <path id="Path_1215" data-name="Path 1215" d="M596.8,281.751h6.554l4.964-3.607V230.368l-4.964-3.568H596.8l4.149,3.994v46.962Z" transform="translate(-596.8 -226.8)" fill="url(#linear-gradient-5)"/>
  </g>
</svg>
