<?xml version="1.0" encoding="utf-8"?>
<!-- Generator: Adobe Illustrator 26.0.0, SVG Export Plug-In . SVG Version: 6.00 Build 0)  -->
<svg version="1.1" id="Layer_1" xmlns="http://www.w3.org/2000/svg" xmlns:xlink="http://www.w3.org/1999/xlink" x="0px" y="0px"
	 viewBox="0 0 16 16" style="enable-background:new 0 0 16 16;" xml:space="preserve">
<style type="text/css">
	.st0{fill-rule:evenodd;clip-rule:evenodd;fill:#FFFFFF;}
</style>
<path id="Path_49" class="st0" d="M8,8c1.1,0,2,0.9,2,2s-0.9,2-2,2s-2-0.9-2-2C6,8.9,6.9,8,8,8z M8,2C6.9,2,6,2.9,6,4h4
	C10,2.9,9.1,2,8,2z M13,16H3c-1.1,0-2-0.9-2-2V6c0-1.1,0.9-2,2-2h1c0-2.2,1.8-4,4-4s4,1.8,4,4h1c1.1,0,2,0.9,2,2v8
	C15,15.1,14.1,16,13,16z"/>
</svg>
