<?xml version="1.0" encoding="utf-8"?>
<!-- Generator: Adobe Illustrator 26.0.0, SVG Export Plug-In . SVG Version: 6.00 Build 0)  -->
<svg version="1.1" id="Layer_1" xmlns="http://www.w3.org/2000/svg" xmlns:xlink="http://www.w3.org/1999/xlink" x="0px" y="0px"
	 viewBox="0 0 16 16" style="enable-background:new 0 0 16 16;" xml:space="preserve">
<style type="text/css">
	.st0{fill:#FFFFFF;}
</style>
<path id="Path_1134" class="st0" d="M15.2,10.4L12,9.8c-0.3,0-0.6,0-0.8,0.2l-1,1c-0.3,0.3-0.7,0.3-1,0.1c-0.9-0.4-1.8-1-2.6-1.7
	c-0.8-0.9-1.4-1.9-1.7-3l0,0l1.3-1.7C6.3,4.6,6.3,4.3,6.3,4L5.4,0.7C5.3,0.3,5,0,4.5,0c0,0-0.8,0-1.7,0.2C2.2,0.2,1.6,0.3,1,0.5
	C0.4,0.7,0,1.7,0,3.1C0,10.2,5.5,16,12.4,16c0.3,0,0.7,0,1,0c0.8,0,1.7-0.2,2.3-0.8c0.2-0.2,0.3-0.4,0.3-0.7v-3.2
	C16,10.8,15.7,10.4,15.2,10.4"/>
</svg>
