<?xml version="1.0" encoding="utf-8"?>
<!-- Generator: Adobe Illustrator 26.0.0, SVG Export Plug-In . SVG Version: 6.00 Build 0)  -->
<svg version="1.1" id="Layer_1" xmlns="http://www.w3.org/2000/svg" xmlns:xlink="http://www.w3.org/1999/xlink" x="0px" y="0px"
	 viewBox="0 0 22 32" style="enable-background:new 0 0 22 32;" xml:space="preserve">
<style type="text/css">
	.st0{fill:#FFFFFF;}
	.st1{fill:none;stroke:#FFFFFF;}
</style>
<g>
	<path class="st0" d="M11,1c5.5,0,10,4.4,10,9.8v10.3c0,5.4-4.5,9.8-10,9.8S1,26.6,1,21.2V10.8C1,5.4,5.5,1,11,1 M11,0
		C4.9,0,0,4.9,0,10.8v10.3C0,27.1,4.9,32,11,32s11-4.9,11-10.8V10.8C22,4.9,17.1,0,11,0L11,0z"/>
</g>
<line id="Line_30" class="st1" x1="11.2" y1="6.6" x2="11.2" y2="12.5"/>
</svg>
