<?xml version="1.0" encoding="utf-8"?>
<!-- Generator: Adobe Illustrator 26.0.0, SVG Export Plug-In . SVG Version: 6.00 Build 0)  -->
<svg version="1.1" id="Layer_1" xmlns="http://www.w3.org/2000/svg" xmlns:xlink="http://www.w3.org/1999/xlink" x="0px" y="0px"
	 viewBox="0 0 15 15" style="enable-background:new 0 0 15 15;" xml:space="preserve">
<style type="text/css">
	.st0{fill:#FFF;}
</style>
<path id="SelectMonthArrow" class="st0" d="M15,7.5C15,3.4,11.6,0,7.5,0S0,3.4,0,7.5S3.4,15,7.5,15S15,11.6,15,7.5 M6.9,11.1
	L3.4,5.5C3.3,5.3,3.4,5.1,3.6,5C3.7,4.9,3.9,4.9,4,5L7.2,7c0.2,0.1,0.4,0.1,0.5,0L11,5c0.2-0.1,0.5-0.1,0.6,0.1
	c0.1,0.1,0.1,0.3,0,0.5l-3.5,5.6c-0.2,0.3-0.6,0.4-0.9,0.2C7.1,11.2,7,11.2,6.9,11.1"/>
</svg>
